<?xml version="1.0" encoding="UTF-8"?>
<svg version="1.1" xmlns="http://www.w3.org/2000/svg" width="687" height="496">
<path d="M0 0 C226.71 0 453.42 0 687 0 C687 163.68 687 327.36 687 496 C460.29 496 233.58 496 0 496 C0 332.32 0 168.64 0 0 Z " fill="#FEFEFE" transform="translate(0,0)"/>
<path d="M0 0 C0 61.71 0 123.42 0 187 C-15.75 192.625 -15.75 192.625 -22.125 193.6875 C-23.34445312 193.89761719 -24.56390625 194.10773438 -25.8203125 194.32421875 C-26.47088623 194.42702148 -27.12145996 194.52982422 -27.79174805 194.63574219 C-29.4171815 194.90386233 -31.03798997 195.20040259 -32.65551758 195.51269531 C-58.74840331 200.36698373 -83.19208466 196.26930511 -108 188 C-108 126.29 -108 64.58 -108 1 C-98.75569103 1 -98.75569103 1 -94 2 C-91.43686904 2.09212115 -88.90167194 2.13675206 -86.33911133 2.12939453 C-85.20631241 2.13202301 -85.20631241 2.13202301 -84.05062866 2.13470459 C-81.5610726 2.13909492 -79.071588 2.13619355 -76.58203125 2.1328125 C-74.84193407 2.1334867 -73.10183697 2.1344577 -71.36174011 2.13571167 C-67.71437687 2.13718512 -64.06703813 2.13504669 -60.41967773 2.13037109 C-55.76750372 2.12469524 -51.11538768 2.12794141 -46.46321583 2.13394356 C-42.86762566 2.13757682 -39.27204896 2.13639757 -35.67645836 2.13381577 C-33.96262289 2.13315302 -32.24878616 2.13395186 -30.53495216 2.13629532 C-20.30651274 2.14720599 -9.80259228 0 0 0 Z " fill="#E6E6E6" transform="translate(388,99)"/>
<path d="M0 0 C4.50173212 0.57843485 7.58175201 2.34730614 11.4375 4.6875 C24.07954551 12.13844002 37.76150014 17.18118886 51.87890625 21.078125 C55 22 55 22 56 23 C56.26937135 25.37655671 56.47771555 27.73285309 56.6484375 30.1171875 C56.70540802 30.86366547 56.76237854 31.61014343 56.82107544 32.37924194 C57.01035556 34.87750318 57.19277854 37.37621469 57.375 39.875 C57.50689592 41.64031934 57.63906217 43.4056185 57.77148438 45.17089844 C59.18947452 64.18398542 60.50163413 83.20477457 61.80926514 102.22570801 C62.39135032 110.69229999 62.97517529 119.15876977 63.5625 127.625 C63.62498932 128.52622589 63.68747864 129.42745178 63.75186157 130.35598755 C64.74013782 144.57874016 65.80787498 158.7926748 67 173 C57.77351128 173.33861633 49.02227112 172.34921086 39.9375 170.8125 C39.25746918 170.69984802 38.57743835 170.58719604 37.87680054 170.47113037 C1.68776691 164.44943296 -32.79942619 151.08769193 -64.21875 132.25 C-67.08865607 130.53031168 -69.9872029 128.89153225 -72.9375 127.3125 C-79.55591334 123.68138606 -85.77306755 119.46615132 -91 114 C-90.26136719 113.07960938 -89.52273437 112.15921875 -88.76171875 111.2109375 C-83.68233022 104.87479305 -78.62043493 98.52758656 -73.625 92.125 C-68.91918222 86.10203439 -64.06864403 80.20585333 -59.1940918 74.3190918 C-55.08881855 69.35085158 -51.07473232 64.32155917 -47.11328125 59.23828125 C-43.09595497 54.09328443 -38.97776638 49.0339174 -34.84887695 43.97827148 C-30.74546493 38.9439617 -26.73130624 33.84551773 -22.73999023 28.72216797 C-20.43068495 25.77226047 -18.07779994 22.90092138 -15.5625 20.125 C-9.8988039 13.82274993 -5.02758019 6.81084071 0 0 Z " fill="#E5E5E4" transform="translate(240,281)"/>
<path d="M0 0 C1.69592282 1.92184504 3.19012878 3.80698339 4.6875 5.875 C5.59037596 7.08521016 6.49402886 8.29484105 7.3984375 9.50390625 C7.8428418 10.10348145 8.28724609 10.70305664 8.74511719 11.32080078 C12.66577748 16.56716294 16.86349913 21.60709627 21 26.68359375 C22.10424862 28.03899573 23.20841288 29.39446646 24.3125 30.75 C24.87300049 31.43811768 25.43350098 32.12623535 26.01098633 32.83520508 C30.00714354 37.75173822 33.93602563 42.71638755 37.83520508 47.70996094 C41.87512561 52.87090653 46.01118331 57.95064893 50.15527344 63.02807617 C54.19926992 67.99165484 58.16859127 73.00896383 62.1105957 78.05371094 C65.63853272 82.56087539 69.24595907 86.99809172 72.8828125 91.41796875 C76.29543409 95.57985597 79.64508142 99.79157963 83 104 C84.49968628 105.87525094 85.99967846 107.75025727 87.5 109.625 C88.66666667 111.08333333 89.83333333 112.54166667 91 114 C73.10320651 133.15346907 43.00138979 144.90680726 18.94873047 154.23388672 C17.5269592 154.79283413 16.10991284 155.36384364 14.69580078 155.94189453 C-4.5579668 163.79525588 -24.36093429 168.9589459 -44.9375 171.75 C-45.87263428 171.87793945 -46.80776855 172.00587891 -47.77124023 172.13769531 C-54.20731883 172.94726495 -60.51686235 173.14122774 -67 173 C-66.87882812 171.90171875 -66.75765625 170.8034375 -66.6328125 169.671875 C-65.19673362 155.97923165 -64.39377451 142.27641133 -63.69775391 128.53027344 C-62.62854473 107.62854473 -62.62854473 107.62854473 -61 106 C-60.85281592 103.77763418 -60.7723238 101.55080871 -60.71875 99.32421875 C-60.70034058 98.64382034 -60.68193115 97.96342194 -60.66296387 97.2624054 C-60.60406625 95.07086081 -60.55147957 92.87923052 -60.5 90.6875 C-59.87083688 64.61251064 -59.87083688 64.61251064 -58 59 C-57.77777399 56.27357714 -57.60134019 53.56283282 -57.46484375 50.83203125 C-57.40037804 49.63981209 -57.40037804 49.63981209 -57.33460999 48.42350769 C-57.19833784 45.88669533 -57.06784892 43.34962294 -56.9375 40.8125 C-56.84608404 39.0917766 -56.75429172 37.37107314 -56.66210938 35.65039062 C-56.43703954 31.43381276 -56.21715568 27.21699255 -56 23 C-50.38217463 20.88240718 -44.75414106 18.84774176 -39.0625 16.9375 C-38.31548828 16.68162109 -37.56847656 16.42574219 -36.79882812 16.16210938 C-31.59310233 14.41488993 -26.38102254 13.08989789 -21 12 C-21 11.34 -21 10.68 -21 10 C-19.783125 9.566875 -18.56625 9.13375 -17.3125 8.6875 C-12.7755414 6.97815292 -9.11500566 4.92917138 -5.375 1.8125 C-3 0 -3 0 0 0 Z " fill="#E5E6E5" transform="translate(428,281)"/>
<path d="M0 0 C0.72688522 0.02651138 1.45377045 0.05302277 2.2026825 0.08033752 C2.95933701 0.09979935 3.71599152 0.11926117 4.49557495 0.13931274 C11.19489202 0.3498753 17.85427236 0.81708768 24.53471375 1.34986877 C35.61986405 2.20122129 46.70723133 2.88682925 57.80815125 3.49049377 C58.58490833 3.53283897 59.36166542 3.57518417 60.1619606 3.61881256 C66.55796685 3.96666783 72.95431684 4.30802493 79.35069275 4.64900208 C84.17990301 4.90665065 89.00897894 5.16659726 93.83790016 5.4296093 C96.06225967 5.54983766 98.28677694 5.66674166 100.51132202 5.78347778 C106.95056716 6.12920476 113.31179002 6.5920599 119.7026825 7.45533752 C121.85733102 7.58960393 124.01392571 7.69623104 126.1714325 7.77174377 C127.31869812 7.81363831 128.46596375 7.85553284 129.647995 7.8986969 C130.82104187 7.93801331 131.99408875 7.97732971 133.2026825 8.01783752 C134.40666687 8.06102112 135.61065125 8.10420471 136.85112 8.1486969 C139.80154443 8.2540692 142.75204321 8.35619655 145.7026825 8.45533752 C145.10630915 13.45076583 144.05897441 17.95660254 142.5151825 22.76783752 C142.2966864 23.44934875 142.07819031 24.13085999 141.85307312 24.83302307 C141.38479272 26.28749541 140.91352533 27.74100896 140.4394989 29.19361877 C139.6891412 31.49690365 138.95163145 33.80407144 138.21440125 36.11158752 C137.71133086 37.66394199 137.20744313 39.21603184 136.7026825 40.76783752 C136.47814392 41.47142395 136.25360535 42.17501038 136.02226257 42.8999176 C134.02318845 48.9617849 131.41418705 54.68263236 128.7026825 60.45533752 C128.27261902 61.38080383 127.84255554 62.30627014 127.39945984 63.25978088 C119.54916892 80.09123765 110.83621233 96.03673724 100.83354187 111.68580627 C100.0764002 112.87055645 99.32773718 114.06076586 98.58744812 115.25611877 C97.67865649 116.69069927 96.69696948 118.07863247 95.7026825 119.45533752 C95.0426825 119.45533752 94.3826825 119.45533752 93.7026825 119.45533752 C93.3314325 120.50721252 93.3314325 120.50721252 92.9526825 121.58033752 C91.53088011 124.850483 89.83021961 127.59645952 87.7026825 130.45533752 C87.0426825 130.45533752 86.3826825 130.45533752 85.7026825 130.45533752 C85.45776062 131.00705627 85.21283875 131.55877502 84.960495 132.12721252 C80.56807343 140.25728473 73.35027245 147.1337874 66.7026825 153.45533752 C63.69573676 152.13652991 61.91700227 150.84080476 59.897995 148.26002502 C59.39654968 147.62580627 58.89510437 146.99158752 58.37846375 146.33815002 C57.86670593 145.6755719 57.35494812 145.01299377 56.8276825 144.33033752 C56.32365906 143.69096252 55.81963562 143.05158752 55.30033875 142.39283752 C52.22092732 138.47072272 49.22328914 134.49039353 46.23881531 130.49586487 C43.53854954 126.90895747 40.77583549 123.37084694 38.0151825 119.83033752 C37.4050531 119.04690979 36.79492371 118.26348206 36.16630554 117.45631409 C30.69856187 110.44012597 25.20585386 103.44375143 19.7026825 96.45533752 C13.07463597 88.03845763 6.47551918 79.59998424 -0.09638977 71.13917542 C-3.28153611 67.04049047 -6.47470729 62.94853263 -9.6867218 58.87086487 C-11.01926091 57.17847086 -12.34791923 55.48308725 -13.67622375 53.78736877 C-15.50144915 51.45915563 -17.34607423 49.1477377 -19.19966125 46.84205627 C-20.12828712 45.67167409 -21.05668102 44.50110783 -21.9848175 43.33033752 C-22.41955383 42.79755188 -22.85429016 42.26476624 -23.30220032 41.71583557 C-25.77217412 38.57585866 -26.2973175 37.62715278 -26.2973175 33.45533752 C-25.6373175 33.45533752 -24.9773175 33.45533752 -24.2973175 33.45533752 C-24.2973175 32.79533752 -24.2973175 32.13533752 -24.2973175 31.45533752 C-23.6373175 31.45533752 -22.9773175 31.45533752 -22.2973175 31.45533752 C-21.22206556 28.8030494 -20.20275599 26.17165298 -19.2973175 23.45533752 C-18.6373175 23.45533752 -17.9773175 23.45533752 -17.2973175 23.45533752 C-16.3073175 19.99033752 -16.3073175 19.99033752 -15.2973175 16.45533752 C-14.6373175 16.45533752 -13.9773175 16.45533752 -13.2973175 16.45533752 C-12.6373175 14.14533752 -11.9773175 11.83533752 -11.2973175 9.45533752 C-10.6373175 9.45533752 -9.9773175 9.45533752 -9.2973175 9.45533752 C-9.1941925 8.71283752 -9.0910675 7.97033752 -8.9848175 7.20533752 C-7.61375734 1.72109688 -5.78287132 -0.01606292 0 0 Z " fill="#E7E6E7" transform="translate(494.2973175048828,207.54466247558594)"/>
<path d="M0 0 C0.26627197 0.48766846 0.53254395 0.97533691 0.80688477 1.4777832 C5.93203731 10.8424637 11.08581859 20.10519666 17 29 C17.65162109 29.98806641 17.65162109 29.98806641 18.31640625 30.99609375 C19.20406305 32.33531115 20.10048529 33.66871823 21 35 C19.625 37.5 19.625 37.5 18 40 C17.34 40 16.68 40 16 40 C15.814375 40.66 15.62875 41.32 15.4375 42 C13.7927758 45.4324679 11.71834282 47.77415059 9.14453125 50.546875 C5.92433748 54.2304482 2.98555483 58.12544132 0 62 C-1.13062125 63.45381693 -2.26211284 64.90695749 -3.39453125 66.359375 C-8.67609728 73.14309378 -13.9557363 79.92776313 -19.1875 86.75 C-22.51508061 91.08397085 -25.8698115 95.39458744 -29.25 99.6875 C-33.57233978 105.17982564 -37.88796784 110.677292 -42.1875 116.1875 C-42.78304687 116.95006104 -43.37859375 117.71262207 -43.9921875 118.49829102 C-47.9931374 123.64372199 -51.84209349 128.86268318 -55.546875 134.2265625 C-56.02640625 134.81179688 -56.5059375 135.39703125 -57 136 C-57.66 136 -58.32 136 -59 136 C-59.22429687 136.52078125 -59.44859375 137.0415625 -59.6796875 137.578125 C-61.49424109 140.90659609 -63.78914175 143.77292576 -66.125 146.75 C-66.82689453 147.65298828 -66.82689453 147.65298828 -67.54296875 148.57421875 C-68.69225007 150.05186616 -69.84571235 151.52626005 -71 153 C-74.32302186 151.43622501 -76.56184007 149.78646849 -79 147 C-79 146.34 -79 145.68 -79 145 C-79.66 145 -80.32 145 -81 145 C-82.77734375 143.0859375 -82.77734375 143.0859375 -84.9375 140.375 C-85.73800781 139.37210938 -86.53851563 138.36921875 -87.36328125 137.3359375 C-87.7907666 136.79420898 -88.21825195 136.25248047 -88.65869141 135.69433594 C-90.02607881 133.96705735 -91.40829625 132.25250472 -92.79296875 130.5390625 C-98.35295183 123.61907665 -103.40754777 116.60953103 -108 109 C-108.88575406 107.55539764 -109.77255986 106.11143987 -110.66015625 104.66796875 C-113.04377818 100.78775745 -115.41141536 96.89806107 -117.77539062 93.00585938 C-118.78223946 91.35668274 -119.80325578 89.71616383 -120.828125 88.078125 C-124.82175812 81.64627376 -127.92107136 74.90881548 -131 68 C-131.87451773 66.10394416 -132.74949067 64.20809818 -133.625 62.3125 C-143 41.609375 -143 41.609375 -143 35 C-143.66 35 -144.32 35 -145 35 C-146.01050337 31.44039436 -147.00653404 27.87689478 -148 24.3125 C-148.28617188 23.30509766 -148.57234375 22.29769531 -148.8671875 21.25976562 C-149.27324219 19.79506836 -149.27324219 19.79506836 -149.6875 18.30078125 C-149.93886719 17.40528564 -150.19023437 16.50979004 -150.44921875 15.5871582 C-151.00466098 12.97810622 -151.1005663 10.65872158 -151 8 C-150.00597168 7.9498877 -149.01194336 7.89977539 -147.98779297 7.84814453 C-130.1227424 6.94392397 -112.26738662 5.99503679 -94.42236328 4.75048828 C-83.38529561 3.99444399 -72.34137146 3.42996867 -61.29257202 2.87701416 C-51.1161451 2.36525702 -40.96706673 1.73026636 -30.8125 0.875 C-20.5182288 0.00973133 -10.3256853 -0.22393052 0 0 Z " fill="#E5E3E4" transform="translate(180,208)"/>
<path d="M0 0 C0.79733047 0.00142502 1.59466095 0.00285004 2.41615295 0.00431824 C3.32147263 0.00124161 4.2267923 -0.00183502 5.1595459 -0.00500488 C6.14278336 0.00218063 7.12602081 0.00936615 8.13905334 0.01676941 C9.66049706 0.01745674 9.66049706 0.01745674 11.212677 0.01815796 C13.36726546 0.02118501 15.52185163 0.02908472 17.67640686 0.04142761 C20.94203136 0.05949103 24.20736886 0.06193855 27.47303772 0.06169128 C29.57004534 0.06661433 31.66705105 0.07244605 33.76405334 0.07926941 C35.21158241 0.08093864 35.21158241 0.08093864 36.68835449 0.0826416 C42.36525168 0.12143156 47.93949352 0.46109965 53.58813477 1.02163696 C56.59733212 1.29748332 59.57879998 1.37662055 62.59999084 1.38005066 C64.26578186 1.38198425 64.26578186 1.38198425 65.96522522 1.38395691 C67.08606506 1.38008972 68.20690491 1.37622253 69.36170959 1.37223816 C70.50188538 1.37610535 71.64206116 1.37997253 72.81678772 1.38395691 C73.92086975 1.38266785 75.02495178 1.38137878 76.16249084 1.38005066 C77.64422791 1.37835876 77.64422791 1.37835876 79.15589905 1.37663269 C82.58585829 1.28130004 82.58585829 1.28130004 88.04920959 0.24723816 C88.04920959 61.29723816 88.04920959 122.34723816 88.04920959 185.24723816 C83.22920942 184.28323812 79.79320894 182.70768353 75.61170959 180.30973816 C74.91013733 179.90932312 74.20856506 179.50890808 73.48573303 179.09635925 C61.48112861 172.1202721 51.00465454 163.8894341 41.04920959 154.24723816 C40.53052307 153.75433289 40.01183655 153.26142761 39.47743225 152.75358582 C32.81823663 146.42032207 27.0727328 139.98400117 22.04920959 132.24723816 C21.11769568 130.97201056 20.18074328 129.70072553 19.23670959 128.43473816 C15.5940536 123.12686799 14.79603762 119.70312343 15.04920959 113.24723816 C13.65702209 113.15442566 13.65702209 113.15442566 12.23670959 113.05973816 C9.04920959 112.24723816 9.04920959 112.24723816 7.17420959 109.93473816 C6.04920959 107.24723816 6.04920959 107.24723816 6.04920959 103.24723816 C5.38920959 103.24723816 4.72920959 103.24723816 4.04920959 103.24723816 C3.38920959 99.94723816 2.72920959 96.64723816 2.04920959 93.24723816 C1.38920959 93.24723816 0.72920959 93.24723816 0.04920959 93.24723816 C-0.68838262 90.2968693 -1.42575418 87.34644884 -2.16172791 84.39567566 C-2.59933086 82.64959654 -3.03946022 80.90412453 -3.48985291 79.16130066 C-3.7964965 77.97110774 -4.09423964 76.77858524 -4.38291931 75.58390808 C-4.80458965 73.84882349 -5.2452462 72.11833015 -5.69590759 70.39054871 C-7.84130456 61.50910177 -8.3619626 53.24449482 -8.23204041 44.14689636 C-8.20018339 41.89176822 -8.19098499 39.63733721 -8.18516541 37.38200378 C-8.11533753 26.41178528 -8.11533753 26.41178528 -6.95079041 25.24723816 C-6.67727834 23.5678404 -6.45977741 21.87923553 -6.26719666 20.18864441 C-6.14409119 19.16319519 -6.02098572 18.13774597 -5.89414978 17.08122253 C-5.64074413 14.90453298 -5.39073004 12.72744584 -5.14414978 10.54997253 C-5.01975525 9.52323425 -4.89536072 8.49649597 -4.76719666 7.43864441 C-4.65835144 6.49190857 -4.54950623 5.54517273 -4.43736267 4.56974792 C-3.82580472 1.65065571 -3.06055764 0.3878872 0 0 Z " fill="#E6E5E6" transform="translate(187.95079040527344,98.75276184082031)"/>
<path d="M0 0 C2.33137924 0.00502837 4.66275954 0.0095889 6.99414062 0.01367188 C12.64195061 0.02456385 18.28972018 0.04119455 23.9375 0.0625 C27.29034931 13.16171564 28.57555364 25.53859038 28.45898438 39.05053711 C28.43753775 41.99481745 28.45892005 44.9366521 28.484375 47.88085938 C28.50964878 64.2008261 26.55186947 80.14797572 20.375 95.375 C19.93897461 96.51098633 19.93897461 96.51098633 19.49414062 97.66992188 C17.74854768 102.1803466 15.86510398 106.62725315 13.9375 111.0625 C13.2775 111.0625 12.6175 111.0625 11.9375 111.0625 C11.86660156 111.72765625 11.79570312 112.3928125 11.72265625 113.078125 C10.65171205 117.14877859 8.62545606 120.28406346 6.375 123.8125 C5.92535889 124.5240625 5.47571777 125.235625 5.01245117 125.96875 C1.45248461 131.49233641 -2.51841771 136.31709761 -7.0625 141.0625 C-8.17098992 142.37135078 -9.2751755 143.6838593 -10.375 145 C-24.26020312 160.7928549 -45.34145451 176.4311382 -65.0625 184.0625 C-66.0525 184.0625 -67.0425 184.0625 -68.0625 184.0625 C-68.13670027 178.58157306 -68.1911258 173.10093901 -68.22729492 167.61962891 C-68.24237414 165.75531928 -68.26284061 163.89104508 -68.28881836 162.02685547 C-68.32523996 159.34593967 -68.3422349 156.6654932 -68.35546875 153.984375 C-68.37095261 153.15194275 -68.38643646 152.3195105 -68.40238953 151.46185303 C-68.40261612 150.68134583 -68.40284271 149.90083862 -68.40307617 149.09667969 C-68.40973801 148.41273132 -68.41639984 147.72878296 -68.42326355 147.02410889 C-68.0625 145.0625 -68.0625 145.0625 -66.5625 143.10266113 C-64.75250106 140.64086814 -64.69702352 139.40697943 -64.72192383 136.38574219 C-64.72215042 135.46508972 -64.72237701 134.54443726 -64.72261047 133.59588623 C-64.73809433 132.61033752 -64.75357819 131.62478882 -64.76953125 130.609375 C-64.77377609 129.59401672 -64.77802094 128.57865845 -64.78239441 127.53253174 C-64.79917576 124.29225046 -64.83682759 121.05259303 -64.875 117.8125 C-64.89004751 115.61459232 -64.9037358 113.41667488 -64.91601562 111.21875 C-64.94907745 105.83312078 -64.99927164 100.44785497 -65.0625 95.0625 C-66.0525 94.7325 -67.0425 94.4025 -68.0625 94.0625 C-68.1434723 91.62433415 -68.20296972 89.18885616 -68.25 86.75 C-68.27513672 86.05970703 -68.30027344 85.36941406 -68.32617188 84.65820312 C-68.35546875 82.63671875 -68.35546875 82.63671875 -68.0625 79.0625 C-67.5682251 78.64726074 -67.0739502 78.23202148 -66.56469727 77.80419922 C-64.21239636 75.07686058 -64.67388646 72.05085823 -64.734375 68.62109375 C-64.73624817 67.89761246 -64.73812134 67.17413116 -64.74005127 66.4287262 C-64.7467666 64.90141176 -64.76067095 63.37411438 -64.78125 61.84692383 C-64.81243064 59.50520909 -64.82222414 57.16416747 -64.828125 54.82226562 C-64.83729428 53.33853343 -64.84766982 51.8548081 -64.859375 50.37109375 C-64.86362488 49.66899277 -64.86787476 48.96689178 -64.87225342 48.24351501 C-64.87890945 44.52830507 -64.87890945 44.52830507 -66.0625 41.0625 C-66.7225 41.0625 -67.3825 41.0625 -68.0625 41.0625 C-68.0625 27.8625 -68.0625 14.6625 -68.0625 1.0625 C-56.625 1.125 -56.625 1.125 -53.13891602 1.15258789 C-47.18439736 1.16787739 -41.28292839 0.97315802 -35.34375 0.5625 C-23.57488551 -0.22297678 -11.78874109 -0.04463199 0 0 Z " fill="#E6E6E6" transform="translate(460.0625,98.9375)"/>
<path d="M0 0 C0.77070375 0.00223072 1.5414075 0.00446144 2.33546591 0.00675976 C3.14824169 0.00519977 3.96101747 0.00363978 4.79842281 0.00203252 C7.54308834 -0.00198088 10.28769931 0.00121347 13.03236532 0.00434887 C14.99145684 0.00299498 16.9505481 0.00121512 18.90963888 -0.00096118 C24.24625978 -0.00553697 29.58286145 -0.00374536 34.91948271 -0.0005821 C40.49108703 0.00194076 46.06268965 -0.00039583 51.63429403 -0.00196826 C60.99273619 -0.00379018 70.35117046 -0.00138308 79.70961142 0.00337231 C90.54606508 0.00881497 101.38249993 0.00705233 112.21895313 0.00154591 C121.50468864 -0.0029846 130.79041846 -0.00363608 140.07615471 -0.00101542 C145.63009878 0.00054769 151.18403399 0.00074017 156.7379775 -0.00255191 C161.95813714 -0.00542972 167.1782724 -0.0034566 172.39842939 0.00234234 C174.3201781 0.00367043 176.24192883 0.00327501 178.16367674 0.00107968 C180.77541134 -0.00162994 183.38706653 0.00174697 185.99879599 0.00675976 C187.15485161 0.00341368 187.15485161 0.00341368 188.33426189 0 C193.5529811 0.01959356 193.5529811 0.01959356 194.66713095 1.13374341 C194.76126782 3.18931002 194.78456092 5.24814522 194.78065634 7.30586255 C194.78080236 7.94974423 194.78094839 8.59362591 194.78109884 9.25701916 C194.7803998 11.39434643 194.77260786 13.53158753 194.7647872 15.66889966 C194.76292299 17.14720626 194.7614991 18.62551348 194.76049948 20.10382092 C194.75667454 24.00173143 194.74684446 27.89960489 194.7357955 31.79750073 C194.72558086 35.77220673 194.72100175 39.7469187 194.71595907 43.72163403 C194.70522217 51.52568741 194.68814604 59.32971022 194.66713095 67.13374341 C168.60764205 67.15706918 142.5481547 67.17472099 116.48865747 67.18555558 C104.38969782 67.19071922 92.29074465 67.19776321 80.19178915 67.20918286 C69.65046288 67.21912761 59.1091413 67.22559633 48.56781048 67.2278319 C42.98254961 67.22913936 37.39730216 67.23222745 31.81204557 67.23947346 C26.56153446 67.24623039 21.31104237 67.24836104 16.06052732 67.24685109 C14.12749011 67.24712756 12.19445229 67.24913461 10.26141882 67.25294888 C7.63430834 67.25788103 5.00727086 67.25674348 2.3801589 67.25399792 C1.60488208 67.25691076 0.82960527 67.2598236 0.03083521 67.26282471 C-5.21874784 67.24786462 -5.21874784 67.24786462 -6.33286905 66.13374341 C-6.43222053 64.11424132 -6.46086413 62.09123426 -6.46226358 60.06929028 C-6.46541574 58.77124463 -6.46856791 57.47319897 -6.47181559 56.1358186 C-6.47002581 54.70804319 -6.46797485 53.28026809 -6.46568155 51.85249341 C-6.46635463 50.39900203 -6.46732469 48.94551076 -6.46858072 47.49201977 C-6.47005751 44.44208214 -6.46790375 41.39217374 -6.46324015 38.3422395 C-6.45754286 34.42443781 -6.46082196 30.50670462 -6.46681261 26.58890545 C-6.47041874 23.58643587 -6.4692794 20.58398264 -6.46668482 17.58151257 C-6.46601569 16.13655603 -6.46684348 14.69159802 -6.46916437 13.24664319 C-6.4716917 11.23049457 -6.46715957 9.21434078 -6.46226358 7.19819653 C-6.46146799 6.04871533 -6.4606724 4.89923413 -6.4598527 3.71492016 C-6.23192911 -0.91804714 -4.10849563 0.01542525 0 0 Z " fill="#030303" transform="translate(240.33286905288696,19.866256594657898)"/>
<path d="M0 0 C1.46751457 -0.00143509 1.46751457 -0.00143509 2.9646759 -0.00289917 C5.01396754 -0.0035726 7.06326142 -0.00177757 9.11254883 0.00244141 C12.18380743 0.00777219 15.25491787 0.00248247 18.32617188 -0.00390625 C30.58946244 -0.00760146 42.78164491 0.34245838 55.01953125 1.1328125 C58.85469705 18.39105861 57.01953125 36.45357169 57.01953125 54.1328125 C8.50953125 54.1328125 -40.00046875 54.1328125 -89.98046875 54.1328125 C-90.31046875 45.8828125 -90.64046875 37.6328125 -90.98046875 29.1328125 C-91.85855278 23.36799997 -92.7564664 17.80547312 -93.98046875 12.1328125 C-94.39974817 10.13335861 -94.81683644 8.13344226 -95.23046875 6.1328125 C-95.400625 5.3696875 -95.57078125 4.6065625 -95.74609375 3.8203125 C-95.8234375 3.2634375 -95.90078125 2.7065625 -95.98046875 2.1328125 C-94.98046875 1.1328125 -94.98046875 1.1328125 -92.29695129 1.01928711 C-90.49830879 1.02714233 -90.49830879 1.02714233 -88.66333008 1.03515625 C-88.00292221 1.03661652 -87.34251434 1.03807678 -86.66209412 1.0395813 C-85.22103447 1.04339832 -83.77997958 1.04952633 -82.33893776 1.05764771 C-80.04566642 1.07040615 -77.75245303 1.07692789 -75.45915222 1.08178711 C-69.75034636 1.09517042 -64.04159385 1.119111 -58.33282471 1.14318848 C-53.52940346 1.16310226 -48.72600439 1.17868034 -43.92255211 1.18875122 C-41.68618692 1.19513776 -39.44991345 1.20765628 -37.21357727 1.22045898 C-29.50529821 1.2477025 -21.88214772 0.97826553 -14.19398499 0.36212158 C-9.45988618 0.02430725 -4.74425068 -0.01071569 0 0 Z " fill="#E5E5E4" transform="translate(591.98046875,97.8671875)"/>
<path d="M0 0 C1.61359862 0.00138269 1.61359862 0.00138269 3.25979519 0.00279331 C4.48963634 0.00141865 5.7194775 0.00004398 6.98658657 -0.00137234 C8.36195302 0.00216727 9.73731923 0.00580209 11.1126852 0.00952244 C12.55123804 0.0098043 13.98979102 0.00964659 15.42834377 0.00907993 C19.34552749 0.00879194 23.26268086 0.01468899 27.17985749 0.02165389 C31.26915443 0.02788709 35.358452 0.0284912 39.44775295 0.0296793 C47.19674004 0.03279272 54.94571309 0.04100624 62.69469398 0.05102879 C71.51437815 0.0621896 80.33406298 0.0677003 89.15375245 0.07272422 C107.30144829 0.08318885 125.44913105 0.10078849 143.59681606 0.12304783 C143.6129603 3.31436674 143.62264932 6.50567496 143.63123989 9.69702244 C143.63585484 10.59381466 143.64046978 11.49060688 143.64522457 12.41457462 C143.65900877 19.25143934 143.23065117 25.91054175 142.28431606 32.68554783 C142.10739223 34.12897556 142.10739223 34.12897556 141.92689419 35.60156345 C139.63051882 53.08934507 139.63051882 53.08934507 136.59681606 56.12304783 C134.22568069 56.22308129 131.8898513 56.25761113 129.51869106 56.24023533 C128.79905178 56.23716373 128.0794125 56.23409214 127.33796597 56.23092747 C119.82558053 56.16714171 112.34217598 55.73571611 104.84681606 55.24804783 C102.62570517 55.10908977 100.4044885 54.97191802 98.1832571 54.83490086 C96.64972599 54.74025973 95.11622787 54.64508241 93.58276272 54.5493784 C88.1681194 54.21311513 82.75238814 53.90555344 77.33509731 53.61523533 C76.57500362 53.57443348 75.81490993 53.53363163 75.0317831 53.49159336 C73.50288498 53.40961085 71.97398484 53.32766594 70.44508266 53.24575901 C58.07222481 52.58152321 45.72348525 51.78369166 33.37074184 50.80493259 C23.94040527 50.08642392 14.50909298 49.72534902 5.05580044 49.46460056 C-1.47192163 49.27615259 -7.91615796 48.88445302 -14.40318394 48.12304783 C-14.40318394 47.13304783 -14.40318394 46.14304783 -14.40318394 45.12304783 C-13.74318394 45.12304783 -13.08318394 45.12304783 -12.40318394 45.12304783 C-12.29361362 44.36121189 -12.18404331 43.59937595 -12.07115269 42.81445408 C-11.19829918 37.13026174 -10.09431498 31.8956503 -8.12974644 26.49804783 C-6.93287791 22.58570338 -6.41474148 18.57176341 -5.83287144 14.52929783 C-5.40318394 12.12304783 -5.40318394 12.12304783 -4.40318394 11.12304783 C-4.19542833 9.46100295 -4.03600139 7.79275292 -3.90318394 6.12304783 C-3.4300937 0.17562766 -3.4300937 0.17562766 0 0 Z " fill="#E5E6E7" transform="translate(504.40318393707275,155.87695217132568)"/>
<path d="M0 0 C48.51 0 97.02 0 147 0 C147.99 5.61 148.98 11.22 150 17 C152.06667462 25.33336541 154.36132002 33.43551683 157.265625 41.51171875 C158 44 158 44 158 48 C156.99549805 48.0501123 155.99099609 48.10022461 154.95605469 48.15185547 C150.22051464 48.38924859 145.48520988 48.63111442 140.75 48.875 C139.8864389 48.91946259 139.02287781 48.96392517 138.13314819 49.00973511 C126.06577122 49.63549447 114.02143387 50.39723422 101.97265625 51.31762695 C92.61402801 52.00945361 83.25609535 52.39169202 73.8762207 52.65844727 C72.82909912 52.68994873 71.78197754 52.7214502 70.703125 52.75390625 C69.79208008 52.77783447 68.88103516 52.8017627 67.94238281 52.82641602 C64.96190135 53.00224761 62.0297107 53.3652319 59.07028198 53.7525177 C55.75283241 54.14908689 52.42409209 54.3451838 49.08984375 54.53515625 C48.35987686 54.57813339 47.62990997 54.62111053 46.87782288 54.66539001 C45.34091016 54.75494844 43.8039155 54.84311072 42.2668457 54.92993164 C39.96727925 55.0608052 37.66823995 55.19908173 35.36914062 55.33789062 C16.40813599 56.44713092 16.40813599 56.44713092 7 56 C4.61062881 53.61062881 4.95008791 48.14125682 4.5 44.90625 C4.30757295 42.11524717 4.30757295 42.11524717 3 41 C2.78564883 39.55052466 2.62950251 38.09231731 2.5 36.6328125 C2.4175 35.74722656 2.335 34.86164063 2.25 33.94921875 C2.1675 33.01722656 2.085 32.08523437 2 31.125 C1.83656166 29.2939798 1.67002453 27.46323287 1.5 25.6328125 C1.4278125 24.81699707 1.355625 24.00118164 1.28125 23.16064453 C1.04680527 20.82187296 1.04680527 20.82187296 0 18 C-0.25425196 15.30775422 -0.46281326 12.63504712 -0.625 9.9375 C-0.6765625 9.20466797 -0.728125 8.47183594 -0.78125 7.71679688 C-1.12287628 2.24575255 -1.12287628 2.24575255 0 0 Z " fill="#E4E5E7" transform="translate(20,156)"/>
<path d="M0 0 C1.89575251 -0.02721176 3.79161979 -0.04649136 5.6875 -0.0625 C6.74324219 -0.07410156 7.79898437 -0.08570313 8.88671875 -0.09765625 C11.74183365 -0.00809807 14.21216846 0.43571471 17 1 C19.05969414 1.09031504 21.12192161 1.13063265 23.18359375 1.1328125 C24.35857422 1.13410156 25.53355469 1.13539063 26.74414062 1.13671875 C27.96294922 1.13285156 29.18175781 1.12898438 30.4375 1.125 C31.65244141 1.12886719 32.86738281 1.13273437 34.11914062 1.13671875 C35.29541016 1.13542969 36.47167969 1.13414062 37.68359375 1.1328125 C38.75150146 1.13168457 39.81940918 1.13055664 40.91967773 1.12939453 C43.98331545 1.06830815 43.98331545 1.06830815 46.89477539 0.49169922 C50.66116008 -0.10469191 54.18897749 -0.06570728 58 0 C56.18542111 48.88282287 56.18542111 48.88282287 54.82299805 68.66503906 C54.17716962 78.37680096 53.69412661 88.09392607 53.2421875 97.81640625 C53.20911688 98.525604 53.17604626 99.23480175 53.1419735 99.96549034 C52.80364088 107.22860562 52.47038181 114.49192299 52.14771271 121.75575161 C52.05475547 123.83596736 51.96005142 125.91609538 51.86465454 127.99620056 C51.74626493 130.58350136 51.63111922 133.17095316 51.5196228 135.75856018 C51.46601593 136.9175029 51.41240906 138.07644562 51.35717773 139.27050781 C51.28961525 140.79118866 51.28961525 140.79118866 51.22068787 142.34259033 C51 145 51 145 50 149 C36.8 149 23.6 149 10 149 C8.42337026 145.84674051 8.58382362 142.41110664 8.36743164 138.93969727 C8.31197678 138.10495377 8.25652191 137.27021027 8.1993866 136.41017151 C8.01561808 133.62916466 7.8379375 130.84780175 7.66015625 128.06640625 C7.53226327 126.11609767 7.40395557 124.16581625 7.2752533 122.21556091 C6.93528886 117.04923924 6.60030523 111.88260681 6.26654053 106.71588135 C5.73842614 98.5540417 5.20275553 90.39269254 4.66763306 82.23130989 C4.47312954 79.26113361 4.27952822 76.29089935 4.0859375 73.32066345 C3.39482515 62.75330036 2.65924984 52.19169042 1.84765625 41.6328125 C1.12501884 32.19157474 0.61811104 22.778636 0.375 13.3125 C0.33632813 12.00345703 0.29765625 10.69441406 0.2578125 9.34570312 C0.16652676 6.23057724 0.08046126 3.11542065 0 0 Z " fill="#E6E6E6" transform="translate(304,305)"/>
<path d="M0 0 C5.03476291 0.65705239 9.50670746 2.08887057 14.25 3.8125 C15.00216797 4.08167236 15.75433594 4.35084473 16.52929688 4.62817383 C21.24142954 6.32622594 25.91435129 8.0985441 30.53125 10.04296875 C34.30582502 11.50621381 38.15358408 12.74000739 42 14 C45.04224414 14.99825654 48.08383831 15.99845104 51.125 17 C52.26388672 17.37125 52.26388672 17.37125 53.42578125 17.75 C56.82913316 18.87468772 60.11724273 20.05076489 63.41015625 21.4765625 C66.26782895 22.68928541 69.04054558 23.7005165 71.98828125 24.6484375 C72.85904297 24.93203125 73.72980469 25.215625 74.62695312 25.5078125 C76.43276547 26.09092572 78.24281921 26.66104833 80.05664062 27.21875 C86.58958764 29.38178391 86.58958764 29.38178391 88.54296875 32.32421875 C88.69378906 33.20722656 88.84460938 34.09023438 89 35 C89.185625 35.96808594 89.37125 36.93617188 89.5625 37.93359375 C90.7382845 47.35036782 91.47872549 56.78268869 92.125 66.25 C92.21265625 67.51642334 92.3003125 68.78284668 92.390625 70.08764648 C92.88593208 77.73744457 93.11194101 85.33470578 93 93 C85.99409209 93.34524306 79.79690203 92.06847231 73 90.4375 C71.86804199 90.1708252 70.73608398 89.90415039 69.56982422 89.62939453 C57.92469886 86.83255862 46.44024806 83.53549681 35 80 C33.14761719 79.42765625 33.14761719 79.42765625 31.2578125 78.84375 C25.48436498 76.98425002 19.89798432 74.79604752 14.32421875 72.40625 C11.87743971 71.37118484 9.42984071 70.37475256 6.95703125 69.40625 C-5.25169086 64.5888819 -16.33408737 58.72899456 -27.15625 51.23828125 C-29.1526945 49.85134483 -29.1526945 49.85134483 -32.0625 48.375 C-32.701875 47.92125 -33.34125 47.4675 -34 47 C-34 42.77894473 -33.92071056 42.40749185 -31.40234375 39.42578125 C-30.56993164 38.42321289 -30.56993164 38.42321289 -29.72070312 37.40039062 C-29.13224609 36.71138672 -28.54378906 36.02238281 -27.9375 35.3125 C-26.79974612 33.95529417 -25.66303332 32.59721494 -24.52734375 31.23828125 C-23.65613892 30.20006226 -23.65613892 30.20006226 -22.76733398 29.14086914 C-19.75760877 25.49502297 -16.8854328 21.74438541 -14 18 C-12.75207209 16.39393265 -11.50336664 14.78846917 -10.25390625 13.18359375 C-9.3402832 12.00893555 -9.3402832 12.00893555 -8.40820312 10.81054688 C-5.60546875 7.20703125 -2.80273438 3.60351562 0 0 Z " fill="#A8D1A4" transform="translate(201,345)"/>
<path d="M0 0 C0.66 0 1.32 0 2 0 C3.234375 1.29296875 3.234375 1.29296875 4.75 3.1875 C12.99423586 12.87748912 22.90441238 21.30036981 33 29 C31.56113702 33.32445158 29.39964205 36.18539218 26.4375 39.625 C25.52952599 40.69104703 24.62198254 41.75746091 23.71484375 42.82421875 C23.25835449 43.35708496 22.80186523 43.88995117 22.33154297 44.43896484 C16.6809255 51.06346944 11.29473902 57.88308168 6.01611328 64.80566406 C0.9676446 71.39634414 -4.30798144 77.80211994 -9.55908203 84.23144531 C-12.73578067 88.13046343 -15.86543072 92.06711345 -19 96 C-30.31310048 110.18419736 -30.31310048 110.18419736 -35.5625 116.5625 C-38.96502865 120.69854479 -42.27286246 124.89941043 -45.5625 129.125 C-49.83696523 134.60954349 -54.28073096 139.8885854 -59 145 C-63.30955552 143.30582584 -66.26989943 140.14074835 -69.5625 137 C-70.70785882 135.91478852 -71.85493432 134.83138535 -73.00390625 133.75 C-73.50736572 133.27046875 -74.0108252 132.7909375 -74.52954102 132.296875 C-76.17879325 130.78377818 -76.17879325 130.78377818 -79 129 C-79 128.34 -79 127.68 -79 127 C-79.85851562 126.61714844 -79.85851562 126.61714844 -80.734375 126.2265625 C-83.24173733 124.86912841 -85.1330456 123.28025896 -87.25 121.375 C-88.30960937 120.42753906 -88.30960937 120.42753906 -89.390625 119.4609375 C-89.92171875 118.97882813 -90.4528125 118.49671875 -91 118 C-89.61134768 113.93582906 -87.72037655 111.19155141 -84.9375 107.9375 C-81.66630758 104.03823864 -78.5274561 100.0915883 -75.5 96 C-71.92070199 91.18219057 -68.19453133 86.52367048 -64.37109375 81.8984375 C-61.2890233 78.13089834 -58.29116174 74.30090144 -55.29296875 70.46655273 C-51.93701881 66.17948892 -48.5387941 61.92857524 -45.125 57.6875 C-40.78712737 52.29395353 -36.55842176 46.82653603 -32.375 41.3125 C-28.66574536 36.42364885 -24.90363369 31.62071066 -20.9375 26.9375 C-15.91744739 21.00545747 -11.28834655 14.80946316 -6.6640625 8.56640625 C-1.85961821 2.12586311 -1.85961821 2.12586311 0 0 Z " fill="#E7E3E4" transform="translate(203,247)"/>
<path d="M0 0 C4.26578783 1.54399745 6.43349887 4.75237576 9.0625 8.25 C10.04409593 9.52747816 11.02587169 10.80481816 12.0078125 12.08203125 C12.50571289 12.73510254 13.00361328 13.38817383 13.51660156 14.06103516 C15.79654018 17.04116559 18.11637119 19.98941411 20.4375 22.9375 C20.88738281 23.51072998 21.33726562 24.08395996 21.80078125 24.67456055 C25.19356355 28.99302937 28.62384709 33.28051787 32.0625 37.5625 C36.18023688 42.69140297 40.22641565 47.86731624 44.21777344 53.0949707 C47.84331488 57.82959431 51.57585626 62.47406491 55.31713867 67.11743164 C59.77395135 72.6704506 64.09677776 78.32107101 68.37231445 84.01464844 C71.54278775 88.20669043 74.87767526 92.18201926 78.36450195 96.11401367 C80.61765203 98.71224988 82.64901449 101.41706278 84.6875 104.1875 C87.3912044 107.85166778 90.13388617 111.46102874 93 115 C91.43673185 118.96829606 88.67895031 121.41590681 85.5625 124.1875 C84.76658447 124.90607178 84.76658447 124.90607178 83.95458984 125.63916016 C78.78208072 130.2715556 73.4118405 134.65135521 68 139 C65.99253284 140.65800479 63.99574362 142.32789048 62 144 C57.8019066 141.82050203 55.58792046 139.47260202 52.875 135.625 C49.51932529 130.99764222 46.03911003 126.58311994 42.3125 122.25 C32.77805923 111.12046863 32.77805923 111.12046863 29.62890625 105.59375 C27.82324428 102.71854725 25.77476422 100.46106794 23.4375 98 C19.36300455 93.59037289 15.64686187 89.05324938 12.02856445 84.25537109 C8.51092638 79.61249432 4.84216506 75.10926333 1.125 70.625 C-3.90813408 64.55111616 -8.87956609 58.43454801 -13.79443359 52.26464844 C-17.51225093 47.60008898 -21.27351691 42.97424649 -25.0625 38.3671875 C-27.06044439 35.9261506 -29.03374083 33.46660191 -31 31 C-29.497502 27.21843201 -27.33222323 25.43634761 -24.125 23 C-21.51848055 21.0081523 -19.09728285 19.09970626 -16.8046875 16.75 C-15 15 -15 15 -13 15 C-12.67 14.01 -12.34 13.02 -12 12 C-10.01739574 10.31267723 -8.0167658 8.64633943 -6 7 C-5.34 6.01 -4.68 5.02 -4 4 C-3.34 4 -2.68 4 -2 4 C-1.34 2.68 -0.68 1.36 0 0 Z " fill="#E7E6E7" transform="translate(463,248)"/>
<path d="M0 0 C5.30304348 9.6184141 10.1522642 19.40370781 14.83422852 29.33886719 C18.1499646 36.33559793 21.66195242 43.19381424 25.44702148 49.94873047 C26.35516936 51.60236049 27.18639886 53.29786076 28 55 C26.50706039 57.98587922 24.41285384 58.12803842 21.3125 59.25 C16.5106761 61.03039272 11.80827283 62.92803893 7.125 65 C0.53747178 67.8492517 -6.13914096 70.17384094 -12.97445679 72.35087585 C-14.86746299 72.95752597 -16.75629532 73.57715753 -18.64477539 74.19775391 C-27.65174363 77.10722131 -36.65426905 79.44976433 -45.92163086 81.36791992 C-48.09546787 81.81934622 -50.26543166 82.28690099 -52.43554688 82.75585938 C-53.84354997 83.05303264 -55.25174644 83.34929153 -56.66015625 83.64453125 C-57.90418213 83.90596924 -59.14820801 84.16740723 -60.42993164 84.43676758 C-64.0162002 85.00255583 -67.37595371 85.1009508 -71 85 C-70.48575952 64.25039654 -68.11313568 43.63354374 -66 23 C-54.28125 18.60546875 -54.28125 18.60546875 -52.14268494 17.80419922 C-50.70812742 17.2657766 -49.27418098 16.72572317 -47.84083557 16.18408203 C-44.42145131 14.89389325 -41.00390333 13.6276689 -37.52734375 12.5 C-36.77259766 12.2525 -36.01785156 12.005 -35.24023438 11.75 C-33.70154608 11.24884961 -32.16248101 10.74885461 -30.62304688 10.25 C-25.96440264 8.71970112 -21.50569915 6.94494303 -17 5 C-14.41341865 4.04918179 -11.80482584 3.17452473 -9.1875 2.3125 C-8.52041016 2.08755859 -7.85332031 1.86261719 -7.16601562 1.63085938 C-2.25360942 0 -2.25360942 0 0 0 Z " fill="#A8D1A4" transform="translate(444,353)"/>
<path d="M0 0 C31.68 0 63.36 0 96 0 C96 17.49 96 34.98 96 53 C64.32 53 32.64 53 0 53 C0 35.51 0 18.02 0 0 Z " fill="#CC4269" transform="translate(285,131)"/>
<path d="M0 0 C31.68 0 63.36 0 96 0 C96 17.16 96 34.32 96 52 C64.32 52 32.64 52 0 52 C0 34.84 0 17.68 0 0 Z " fill="#333333" transform="translate(285,187)"/>
<path d="M0 0 C8.97296641 1.44725265 17.31393345 4.32132708 25.87890625 7.27148438 C28.7045673 8.24199227 31.53916307 9.18469617 34.375 10.125 C35.30054688 10.434375 36.22609375 10.74375 37.1796875 11.0625 C39.20370005 11.73530196 41.230026 12.40115956 43.2578125 13.0625 C44.32773437 13.413125 45.39765625 13.76375 46.5 14.125 C47.93859375 14.59292969 47.93859375 14.59292969 49.40625 15.0703125 C51.71897429 15.89927091 53.83485672 16.84593778 56 18 C51.13649605 39.07518378 36.54587479 63.39537929 23 80 C22.34 80 21.68 80 21 80 C20.34 81.65 19.68 83.3 19 85 C18.34 85 17.68 85 17 85 C16.63261719 85.82757813 16.63261719 85.82757813 16.2578125 86.671875 C14.74261886 89.47639491 12.88915874 91.78103123 10.875 94.25 C10.15054688 95.14203125 9.42609375 96.0340625 8.6796875 96.953125 C8.12539063 97.62859375 7.57109375 98.3040625 7 99 C2.84310978 94.95270764 -1.0052118 90.68854697 -4.8125 86.3125 C-5.40998047 85.63638672 -6.00746094 84.96027344 -6.62304688 84.26367188 C-7.46899414 83.29204102 -7.46899414 83.29204102 -8.33203125 82.30078125 C-8.84483643 81.71466064 -9.3576416 81.12854004 -9.88598633 80.5246582 C-11 79 -11 79 -11 77 C-11.56847656 76.77828125 -12.13695312 76.5565625 -12.72265625 76.328125 C-16.65733814 74.03345631 -19.01133103 70.29117815 -21.796875 66.75390625 C-23.51794733 64.60256584 -25.27454615 62.6582629 -27.1875 60.6875 C-29 58 -29 58 -28.6875 55.3125 C-21.80769231 41.80769231 -21.80769231 41.80769231 -20 40 C-19.6596875 38.0509375 -19.6596875 38.0509375 -19.3125 36.0625 C-18.29789215 31.31771623 -16.32570407 27.88693966 -13.71875 23.8359375 C-11.32629575 19.88838798 -9.3753295 15.74965719 -7.44848633 11.55786133 C-6.70539929 10.00152732 -5.8590146 8.49547578 -5 7 C-4.01 6.67 -3.02 6.34 -2 6 C-0.77479736 2.99152582 -0.77479736 2.99152582 0 0 Z " fill="#F8B7B8" transform="translate(555,250)"/>
<path d="M0 0 C1.67236328 2.47412109 1.67236328 2.47412109 3.3203125 5.7734375 C3.62074966 6.36475464 3.92118683 6.95607178 4.23072815 7.56530762 C5.20820934 9.49575073 6.16637785 11.43513334 7.125 13.375 C7.79384249 14.70273543 8.46417842 16.02971958 9.13598633 17.35595703 C10.47490519 20.0015068 11.8078682 22.64991625 13.13623047 25.30078125 C15.59244345 30.19092223 18.1303056 35.03703787 20.6875 39.875 C21.26491943 40.97593994 21.26491943 40.97593994 21.85400391 42.09912109 C22.39613525 43.12900146 22.39613525 43.12900146 22.94921875 44.1796875 C23.2848584 44.82131836 23.62049805 45.46294922 23.96630859 46.12402344 C24.67620324 47.41236319 25.43240481 48.67592334 26.22509766 49.91503906 C27.39453125 51.7578125 27.39453125 51.7578125 29 55 C28.17999417 58.5576631 25.39325146 60.93350328 22.9375 63.5625 C19.70801662 67.08042208 16.61539482 70.65182375 13.625 74.375 C9.44582564 79.54571836 5.0158958 84.41732369 0.48046875 89.2734375 C-1.7944321 91.77403718 -3.92153017 94.33529508 -6 97 C-10.28904235 95.4114658 -12.32345526 92.56872632 -15 89 C-15 88.34 -15 87.68 -15 87 C-15.66 87 -16.32 87 -17 87 C-18.59221563 85.01279242 -20.05492133 83.02873409 -21.5 80.9375 C-21.94142334 80.3069873 -22.38284668 79.67647461 -22.83764648 79.02685547 C-24.23370479 77.02371845 -25.61772478 75.01266688 -27 73 C-27.42941895 72.38044434 -27.85883789 71.76088867 -28.30126953 71.12255859 C-38.41035799 56.50320141 -46.74955763 41.22221279 -54 25 C-54.42410156 24.09636719 -54.84820312 23.19273437 -55.28515625 22.26171875 C-56.13565229 19.57080506 -56.14566122 18.57065994 -55 16 C-52.63012695 14.79907227 -52.63012695 14.79907227 -49.48828125 13.81640625 C-48.34415771 13.44854004 -47.20003418 13.08067383 -46.02124023 12.70166016 C-44.79735596 12.3257373 -43.57347168 11.94981445 -42.3125 11.5625 C-39.83038939 10.77059546 -37.34861464 9.97763735 -34.8671875 9.18359375 C-33.67448242 8.80702637 -32.48177734 8.43045898 -31.25292969 8.04248047 C-27.44474044 6.82205356 -23.69215151 5.50059059 -19.9375 4.125 C-16.0984927 2.74122766 -12.25929476 1.37691658 -8.375 0.125 C-7.61960938 -0.11992187 -6.86421875 -0.36484375 -6.0859375 -0.6171875 C-3.53561853 -1.08522357 -2.39849633 -1.02164442 0 0 Z " fill="#CD4166" transform="translate(113,251)"/>
<path d="M0 0 C21.80979585 0.34939046 43.34081463 2.59769017 65 5 C63.73299698 8.93698835 62.40863433 12.25713441 60.1875 15.75 C57.1329191 20.6883642 54.5150047 25.76968049 52 31 C45.85697271 30.59980278 41.49301694 27.62592727 36.375 24.5 C34.69800924 23.48511383 33.01841185 22.47451936 31.3359375 21.46875 C30.23064697 20.79489258 30.23064697 20.79489258 29.10302734 20.10742188 C27.05881822 19.03097277 25.25666809 18.45120616 23 18 C22.505 19.485 22.505 19.485 22 21 C21.01 21.495 21.01 21.495 20 22 C20.99 22.33 21.98 22.66 23 23 C23.33 21.68 23.66 20.36 24 19 C24.53753906 19.26941406 25.07507813 19.53882813 25.62890625 19.81640625 C27.36386034 20.68245417 29.10117749 21.54377265 30.83984375 22.40234375 C31.86207031 22.90894531 32.88429688 23.41554687 33.9375 23.9375 C34.95714844 24.44152344 35.97679687 24.94554687 37.02734375 25.46484375 C41.76269178 27.91029943 45.89405891 30.59793452 50 34 C48.77171204 40.00496338 46.0143707 44.58895941 42.8671875 49.8125 C40.50126206 53.85140201 38.45251985 58.01118324 36.390625 62.2109375 C34.83096986 65.3390099 33.15211713 68.37924343 31.43359375 71.421875 C28.20201122 77.23344031 25.11828912 83.12709319 22 89 C21.01 89 20.02 89 19 89 C17.1328125 86.98828125 17.1328125 86.98828125 15.125 84.3125 C13.08469612 81.61209781 11.09649284 79.09600219 8.6953125 76.70703125 C5.1302853 73.12650393 1.95771918 69.27484116 -1.25 65.375 C-2.20519531 64.2303125 -2.20519531 64.2303125 -3.1796875 63.0625 C-3.78554688 62.32773437 -4.39140625 61.59296875 -5.015625 60.8359375 C-5.56508789 60.17126465 -6.11455078 59.5065918 -6.68066406 58.82177734 C-8 57 -8 57 -9 54 C-9.99 53.67 -10.98 53.34 -12 53 C-13.86133958 50.95368258 -15.56159591 48.92966291 -17.25 46.75 C-17.95769531 45.88955078 -17.95769531 45.88955078 -18.6796875 45.01171875 C-20.65630005 42.47448802 -21.99439322 40.73112372 -22.01953125 37.453125 C-20.75678361 34.41478967 -19.20990188 31.77479746 -17.4375 29 C-16.710799 27.84904577 -15.98424064 26.69800147 -15.2578125 25.546875 C-14.88430664 24.96099609 -14.51080078 24.37511719 -14.12597656 23.77148438 C-12.33009584 20.94604844 -10.5712261 18.09873505 -8.8125 15.25 C-8.20019531 14.26515625 -7.58789062 13.2803125 -6.95703125 12.265625 C-4.53875912 8.23034455 -2.26285563 4.12391192 0 0 Z " fill="#F99DFE" transform="translate(504,215)"/>
<path d="M0 0 C22.77 0 45.54 0 69 0 C69 17.49 69 34.98 69 53 C46.23 53 23.46 53 0 53 C0 35.51 0 18.02 0 0 Z " fill="#CC4369" transform="translate(396,131)"/>
<path d="M0 0 C22.77 0 45.54 0 69 0 C69 17.49 69 34.98 69 53 C46.23 53 23.46 53 0 53 C0 35.51 0 18.02 0 0 Z " fill="#CC4369" transform="translate(200,131)"/>
<path d="M0 0 C5.01393104 1.61462308 10.02689796 3.23219652 15.0390625 4.85229492 C16.73770546 5.40092196 18.43659149 5.9487971 20.13574219 6.49584961 C22.60418895 7.2907361 25.07169394 8.08849257 27.5390625 8.88671875 C28.27613434 9.12339767 29.01320618 9.3600766 29.77261353 9.60392761 C36.91156496 11.91892829 43.9204691 14.47159611 51 17 C51.66 33.83 52.32 50.66 53 68 C47.28535669 66.73007926 42.50713961 65.61165347 37.15625 63.609375 C36.54876923 63.38413651 35.94128845 63.15889801 35.31539917 62.92683411 C34.03262051 62.4505253 32.75079804 61.97163394 31.46990967 61.49026489 C28.79742599 60.48598237 26.12019922 59.49464441 23.44320679 58.50245667 C22.11843762 58.01128616 20.79391069 57.51946175 19.46963501 57.02696228 C14.45310634 55.1619982 9.42408507 53.33729371 4.375 51.5625 C3.71250244 51.32950195 3.05000488 51.09650391 2.36743164 50.85644531 C-1.42931279 49.52931432 -5.2409325 48.25355534 -9.0625 47 C-16.45971342 44.56521288 -23.72346872 41.77025302 -31 39 C-29.63733356 34.96194134 -27.8590849 32.45631882 -24.9375 29.375 C-20.95873301 25.07894696 -17.21752544 20.65891417 -13.53881836 16.10498047 C-10.80753012 12.74683136 -8.01217018 9.44437499 -5.2109375 6.14453125 C-4.70715576 5.55015259 -4.20337402 4.95577393 -3.68432617 4.34338379 C-2.45672249 2.89516094 -1.22843316 1.44751933 0 0 Z " fill="#429F38" transform="translate(236,303)"/>
<path d="M0 0 C20.79 0 41.58 0 63 0 C63 15.51 63 31.02 63 47 C31.32 47 -0.36 47 -33 47 C-33 44.36 -33 41.72 -33 39 C-32.410979 38.86424561 -31.82195801 38.72849121 -31.21508789 38.58862305 C-28.49650503 37.95937324 -25.77951709 37.32347516 -23.0625 36.6875 C-21.67321289 36.36749023 -21.67321289 36.36749023 -20.25585938 36.04101562 C-15.01292719 34.80846666 -9.93765665 33.39913841 -4.87280273 31.56176758 C-3 31 -3 31 0 31 C-0.08378906 30.1028125 -0.16757813 29.205625 -0.25390625 28.28125 C-0.35574219 27.0334375 -0.45757812 25.785625 -0.5625 24.5 C-0.71912109 22.69015625 -0.71912109 22.69015625 -0.87890625 20.84375 C-1.05270421 13.89183149 -0.43378426 6.9405481 0 0 Z " fill="#2E6AD4" transform="translate(97,101)"/>
<path d="M0 0 C22.77 0 45.54 0 69 0 C69 17.03808225 68.31462088 29.14455817 56.8125 41.75 C44.73262513 53.0050376 30.98259853 53.30491009 15.375 53.125 C10.30125 53.08375 5.2275 53.0425 0 53 C0 35.51 0 18.02 0 0 Z " fill="#363636" transform="translate(396,186)"/>
<path d="M0 0 C22.77 0 45.54 0 69 0 C69 17.49 69 34.98 69 53 C61.2346875 53.12375 61.2346875 53.12375 53.3125 53.25 C51.70802002 53.28641602 50.10354004 53.32283203 48.45043945 53.36035156 C34.65934562 53.46572439 22.31159924 50.96459411 12.03515625 41.1171875 C8.04234605 36.81204331 5.2495513 32.40517186 3 27 C2.7009375 26.38253906 2.401875 25.76507813 2.09375 25.12890625 C-1.46476722 16.67742786 0 9.88338219 0 0 Z " fill="#353535" transform="translate(200,186)"/>
<path d="M0 0 C1.35011086 2.04462465 2.53204695 4.0365797 3.6875 6.1875 C4.38583654 7.46011992 5.08508336 8.73224068 5.78515625 10.00390625 C6.14496582 10.66148926 6.50477539 11.31907227 6.87548828 11.99658203 C7.99711503 13.99486017 9.17179251 15.94984388 10.37109375 17.90234375 C10.93727417 18.83880737 10.93727417 18.83880737 11.51489258 19.79418945 C12.24391705 20.99651066 12.98435474 22.19199945 13.73706055 23.37963867 C14.7265625 25.0390625 14.7265625 25.0390625 16 28 C15.3984375 30.1328125 15.3984375 30.1328125 14 32 C13.525625 32.70640625 13.05125 33.4128125 12.5625 34.140625 C12.046875 34.83671875 11.53125 35.5328125 11 36.25 C10.484375 36.95640625 9.96875 37.6628125 9.4375 38.390625 C8.963125 38.92171875 8.48875 39.4528125 8 40 C7.34 40 6.68 40 6 40 C5.77441406 40.53496094 5.54882812 41.06992187 5.31640625 41.62109375 C3.57351585 44.77070875 1.28782901 47.35988186 -1.0625 50.0625 C-2.06324251 51.22852982 -3.06323198 52.39520632 -4.0625 53.5625 C-4.56007812 54.14257812 -5.05765625 54.72265625 -5.5703125 55.3203125 C-7.60170677 57.70692326 -9.58409049 60.1318826 -11.5625 62.5625 C-12.27664062 63.43648438 -12.99078125 64.31046875 -13.7265625 65.2109375 C-14.92895484 66.68603738 -16.1307042 68.16167312 -17.32714844 69.64160156 C-18.6918883 71.32802323 -20.06412742 73.00810553 -21.4375 74.6875 C-22.26121094 75.70199219 -23.08492187 76.71648437 -23.93359375 77.76171875 C-24.61550781 78.50035156 -25.29742187 79.23898437 -26 80 C-26.66 80 -27.32 80 -28 80 C-28.5576001 78.92238403 -28.5576001 78.92238403 -29.12646484 77.82299805 C-30.8753058 74.44415108 -32.62487229 71.0656806 -34.375 67.6875 C-34.6916864 67.07619232 -35.0083728 66.46488464 -35.33465576 65.83505249 C-39.79061407 57.23597582 -44.26790406 48.64865308 -48.80224609 40.09057617 C-49.87427204 38.06351964 -50.93824836 36.03245335 -52 34 C-52.57379395 32.9179126 -52.57379395 32.9179126 -53.15917969 31.81396484 C-53.52688477 31.10578613 -53.89458984 30.39760742 -54.2734375 29.66796875 C-54.60520996 29.03528076 -54.93698242 28.40259277 -55.27880859 27.75073242 C-56 26 -56 26 -56 23 C-53.578125 21.16796875 -53.578125 21.16796875 -50.25 19.1875 C-49.67032471 18.84074219 -49.09064941 18.49398437 -48.4934082 18.13671875 C-42.81596959 14.78917603 -36.95045327 11.83048588 -31 9 C-30.34 10.32 -29.68 11.64 -29 13 C-26.53894763 11.79695455 -24.08064456 10.58901116 -21.625 9.375 C-20.89708252 9.01543213 -20.16916504 8.65586426 -19.41918945 8.28540039 C-14.3933204 5.77330082 -9.60608642 3.04017775 -4.91796875 -0.06640625 C-3 -1 -3 -1 0 0 Z " fill="#F30303" transform="translate(170,225)"/>
<path d="M0 0 C21.12 0 42.24 0 64 0 C67.48214286 34.82142857 67.48214286 34.82142857 67 46 C61.5089486 46.14559166 56.01782274 46.28781988 50.52661133 46.42724609 C48.66786484 46.47487757 46.80913961 46.52334773 44.95043945 46.57275391 C32.29698108 46.90835307 19.65788843 47.06556132 7 47 C3.73567018 40.48561169 2.30234789 34.03369228 1.25 26.875 C1.12262451 26.04782471 0.99524902 25.22064941 0.86401367 24.3684082 C-0.26135374 16.08706047 0 8.57946417 0 0 Z " fill="#4DB9F0" transform="translate(32,159)"/>
<path d="M0 0 C21.45 0 42.9 0 65 0 C65 7.66405401 64.52887342 14.85676733 63.6875 22.4375 C63.56955078 23.60087891 63.45160156 24.76425781 63.33007812 25.96289062 C61.39400284 43.60599716 61.39400284 43.60599716 58 47 C55.4301149 47.09091484 52.89011916 47.11554437 50.3203125 47.09375 C49.12282883 47.08837219 49.12282883 47.08837219 47.90115356 47.08288574 C37.89004423 47.0178543 27.88260936 46.757937 17.875 46.5 C15.93359882 46.4516192 13.99219257 46.40344109 12.05078125 46.35546875 C7.36712612 46.239305 2.68354714 46.1204359 -2 46 C-2.15972783 35.84508134 -1.65909128 25.81543429 -1 15.6875 C-0.505 7.9221875 -0.505 7.9221875 0 0 Z " fill="#A6D4FD" transform="translate(571,159)"/>
<path d="M0 0 C31.68 0 63.36 0 96 0 C96 9.24 96 18.48 96 28 C64.32 28 32.64 28 0 28 C0 18.76 0 9.52 0 0 Z " fill="#B56CC7" transform="translate(285,101)"/>
<path d="M0 0 C2.90821119 3.7661892 5.27179572 7.78264535 7.6640625 11.890625 C12.27766244 19.72613605 12.27766244 19.72613605 17.08203125 27.4453125 C17.5497998 28.17717773 18.01756836 28.90904297 18.49951172 29.66308594 C19.3867555 31.04281571 20.28012583 32.41862889 21.18017578 33.79003906 C22.19280253 35.3702184 23.12524644 37.0013203 24.0390625 38.640625 C23.0390625 40.640625 23.0390625 40.640625 19.3203125 42.04296875 C17.7290187 42.5622752 16.13511691 43.07363965 14.5390625 43.578125 C13.76046875 43.83013672 12.981875 44.08214844 12.1796875 44.34179688 C10.59497211 44.85473042 9.00950886 45.36535865 7.42333984 45.8737793 C1.03319527 47.92901625 -5.30581607 50.08238721 -11.5859375 52.453125 C-12.26108398 52.70594238 -12.93623047 52.95875977 -13.63183594 53.21923828 C-17.17086438 54.55315448 -20.68898196 55.92630278 -24.1875 57.36328125 C-24.86345215 57.64002686 -25.5394043 57.91677246 -26.23583984 58.2019043 C-28.11052258 58.97425505 -29.98116708 59.75638631 -31.8515625 60.5390625 C-34.9609375 61.640625 -34.9609375 61.640625 -38.9609375 61.640625 C-39.13001922 44.61973227 -38.60582613 27.64613231 -37.9609375 10.640625 C-34.13467117 8.95762572 -30.43363177 7.37728854 -26.3984375 6.265625 C-20.88899311 4.6770122 -15.53690339 2.71349033 -10.16015625 0.7265625 C-2.63607552 -1.82739897 -2.63607552 -1.82739897 0 0 Z " fill="#43A03A" transform="translate(417.9609375,309.359375)"/>
<path d="M0 0 C7.66837567 -0.02094549 15.33664831 -0.04098358 23.00502777 -0.05175018 C26.57571125 -0.0570399 30.14637115 -0.06411339 33.71704102 -0.07543945 C37.81006097 -0.08834176 41.9030558 -0.09322906 45.99609375 -0.09765625 C47.92418129 -0.10539818 47.92418129 -0.10539818 49.89122009 -0.11329651 C51.66294334 -0.11340981 51.66294334 -0.11340981 53.47045898 -0.11352539 C55.03932106 -0.11685631 55.03932106 -0.11685631 56.63987732 -0.12025452 C59 0 59 0 60 1 C60.86673446 5.84454924 61.12841066 10.52252767 61.1328125 15.4375 C61.13376923 16.12126709 61.13472595 16.80503418 61.13571167 17.50952148 C61.13638746 18.94482516 61.13457544 20.38013201 61.13037109 21.81542969 C61.12501423 23.99421142 61.13033658 26.17278706 61.13671875 28.3515625 C61.13605786 29.75520878 61.13477648 31.15885494 61.1328125 32.5625 C61.13168457 33.82191406 61.13055664 35.08132812 61.12939453 36.37890625 C61 40 61 40 60 47 C51.09 47 42.18 47 33 47 C33 44.36 33 41.72 33 39 C31.28296875 38.81050781 31.28296875 38.81050781 29.53125 38.6171875 C25.11143837 38.06276571 20.8297536 37.15814703 16.5 36.125 C15.79230469 35.96386719 15.08460938 35.80273438 14.35546875 35.63671875 C13.65035156 35.47042969 12.94523438 35.30414063 12.21875 35.1328125 C11.59935547 34.98730957 10.97996094 34.84180664 10.34179688 34.69189453 C6.8314653 33.65475111 3.42728382 32.28523143 0 31 C0 20.77 0 10.54 0 0 Z " fill="#F9CB04" transform="translate(571,101)"/>
<path d="M0 0 C19.47 0 38.94 0 59 0 C59 10.23 59 20.46 59 31 C44.98275862 35.67241379 44.98275862 35.67241379 38.5625 37.25 C37.89541016 37.42273438 37.22832031 37.59546875 36.54101562 37.7734375 C32.95535055 38.66719378 29.69634063 39.19941722 26 39 C26 41.64 26 44.28 26 47 C17.09 47 8.18 47 -1 47 C-3.33348914 25.31227742 -3.33348914 25.31227742 -2.75 15.0625 C-2.71140869 14.34916504 -2.67281738 13.63583008 -2.63305664 12.90087891 C-2.29448523 8.22536895 -1.32523734 4.63833067 0 0 Z " fill="#A4F6E5" transform="translate(38,101)"/>
<path d="M0 0 C17.16 0 34.32 0 52 0 C53.3125 11.9375 53.3125 11.9375 53.7043457 15.58178711 C54.74430574 24.7992483 56.31232998 33.88382085 58 43 C52.45419766 43.29009762 46.90814588 43.57465336 41.36181641 43.85449219 C39.48251021 43.95004469 37.60327497 44.04700511 35.72412109 44.14550781 C24.13598549 44.75182777 12.60541299 45.14868145 1 45 C-0.23677228 29.9913206 -0.06971795 15.05907821 0 0 Z " fill="#2E6BD5" transform="translate(106,159)"/>
<path d="M0 0 C11.65277378 0.48874769 23.29494885 1.10743556 34.93304443 1.86895752 C36.91113696 1.9982765 38.88940583 2.12488899 40.86767578 2.25146484 C42.09599121 2.33348145 43.32430664 2.41549805 44.58984375 2.5 C46.22747681 2.60828125 46.22747681 2.60828125 47.89819336 2.71875 C50.97013131 2.99729172 53.96543045 3.45276852 57 4 C55.8358494 10.56033103 54.28884222 16.74514668 52 23 C51.6390625 24.02351563 51.278125 25.04703125 50.90625 26.1015625 C48.29276804 33.25513171 45.18176446 39.6339462 41 46 C33.68862399 45.68115804 27.65421053 45.26432969 21 42 C19.57093353 41.53569241 18.13201023 41.10126649 16.6875 40.6875 C8.71154824 38.380304 0.86760359 35.64824565 -7 33 C-7 32.34 -7 31.68 -7 31 C-9.64 30.34 -12.28 29.68 -15 29 C-14.41412312 24.86130564 -13.03563178 21.99818242 -10.875 18.4375 C-10.25238281 17.39980469 -9.62976563 16.36210937 -8.98828125 15.29296875 C-8.33214844 14.20628906 -7.67601562 13.11960938 -7 12 C-5.6838612 9.75212658 -4.37118653 7.5022202 -3.0625 5.25 C-2.04166667 3.5 -1.02083333 1.75 0 0 Z " fill="#A6D4FD" transform="translate(572,220)"/>
<path d="M0 0 C2.359375 0.0234375 2.359375 0.0234375 4.5 0.8125 C7.59685737 4.44201683 9.47072372 8.52075433 11.5 12.8125 C12.59438045 14.77631896 13.69796474 16.73504907 14.8125 18.6875 C16.83464966 22.31074898 18.26898529 25.84782352 19.5 29.8125 C7.11888813 34.00899804 -5.26593472 38.14627404 -17.81347656 41.82080078 C-18.56467773 42.04106934 -19.31587891 42.26133789 -20.08984375 42.48828125 C-20.81413574 42.6992041 -21.53842773 42.91012695 -22.28466797 43.12744141 C-25.38412282 44.08590188 -28.42273023 45.20706386 -31.45922852 46.34838867 C-33.8959351 46.90254338 -35.19640236 46.77009404 -37.5 45.8125 C-38.99489797 43.47672192 -40.23609069 41.26132429 -41.5 38.8125 C-42.12390625 37.81863281 -42.7478125 36.82476562 -43.390625 35.80078125 C-46.21224835 30.8851888 -47.6574618 25.53484542 -49.25 20.125 C-49.56582031 19.09310547 -49.88164063 18.06121094 -50.20703125 16.99804688 C-51.48833334 12.72426654 -52.5 9.30828582 -52.5 4.8125 C-48.21762626 4.40080033 -43.93498482 3.99202931 -39.65209961 3.58569336 C-38.20248305 3.44777923 -36.75293564 3.30913584 -35.3034668 3.16967773 C-26.4489025 2.31833643 -17.60333672 1.57908091 -8.72290039 1.05566406 C-5.78074802 0.83368211 -2.91499498 0.44368002 0 0 Z " fill="#4CB9EF" transform="translate(91.5,219.1875)"/>
<path d="M0 0 C16.5 0 33 0 50 0 C49.67 14.85 49.34 29.7 49 45 C35.94997464 45 23.16536067 44.88691721 10.1875 44 C8.69339928 43.90302907 7.19925842 43.80667445 5.70507812 43.7109375 C2.13623281 43.48098111 -1.43201407 43.2429707 -5 43 C-4.4948791 39.25607993 -3.96287073 35.59682825 -3.0078125 31.94140625 C-1.57597047 25.68407061 -1.28989164 19.32721894 -0.875 12.9375 C-0.58625 8.668125 -0.2975 4.39875 0 0 Z " fill="#4F5697" transform="translate(512,159)"/>
<path d="M0 0 C1.1349119 0.00128403 1.1349119 0.00128403 2.29275131 0.00259399 C11.3618585 0.01364705 20.43093212 0.03317673 29.5 0.0625 C28.4640779 8.582737 28.4640779 8.582737 27.78125 12.17578125 C27.65403564 12.86019287 27.52682129 13.54460449 27.39575195 14.24975586 C27.26515381 14.95108643 27.13455566 15.65241699 27 16.375 C24.70935929 29.1631465 24.5 40.80909032 24.5 54.0625 C-24.34 54.0625 -73.18 54.0625 -123.5 54.0625 C-123.5 9.0625 -123.5 9.0625 -119.5 1.0625 C-107.60428593 0.88696853 -95.70845324 0.7209848 -83.8125 0.5625 C-82.47582779 0.54468412 -82.47582779 0.54468412 -81.1121521 0.52650833 C-54.0741088 0.16878209 -27.04044083 -0.03081971 0 0 Z M-104.5 3.0625 C-106.26791866 9.25021531 -106.97347358 14.08179397 -107.25 20.375 C-107.30542969 21.24189453 -107.36085938 22.10878906 -107.41796875 23.00195312 C-107.85908091 32.36556119 -106.57304347 40.40510877 -105.5 50.0625 C-64.91 50.0625 -24.32 50.0625 17.5 50.0625 C17.5 34.5525 17.5 19.0425 17.5 3.0625 C-22.76 3.0625 -63.02 3.0625 -104.5 3.0625 Z " fill="#E4E5E7" transform="translate(142.5,97.9375)"/>
<path d="M0 0 C22.77 0 45.54 0 69 0 C69 9.24 69 18.48 69 28 C46.23 28 23.46 28 0 28 C0 18.76 0 9.52 0 0 Z " fill="#B56DC7" transform="translate(396,101)"/>
<path d="M0 0 C6.14832489 -0.02326952 12.29648995 -0.04308423 18.44482422 -0.05493164 C20.52555872 -0.05988349 22.6062899 -0.06664674 24.68701172 -0.07543945 C39.15646621 -0.13494132 53.55163028 0.20900482 68 1 C72.02768199 9.05536398 69 18.99382928 69 28 C46.23 28 23.46 28 0 28 C0 18.76 0 9.52 0 0 Z " fill="#B56DC7" transform="translate(200,101)"/>
<path d="M0 0 C10.12894737 1.1254386 10.12894737 1.1254386 14.1875 2.4375 C15.02667969 2.70304687 15.86585938 2.96859375 16.73046875 3.2421875 C18.49315966 3.83076243 20.24825983 4.44209202 22 5.0625 C24.4988063 5.84337697 26.80922731 6.35219527 29.375 6.8125 C34.63133444 7.8133313 39.65734867 9.40025089 44.74121094 11.03564453 C50.67746217 12.93384816 56.66017527 14.55376498 62.6953125 16.10546875 C64.81529663 16.67931788 66.92052517 17.31283473 69 18.01953125 C72.2667853 19.08719155 75.50879012 19.81026435 78.875 20.5 C83.95137214 21.55937003 88.98162369 22.69522216 94 24 C94 26.64 94 29.28 94 32 C62.98 32 31.96 32 0 32 C0 21.44 0 10.88 0 0 Z " fill="#4E5596" transform="translate(510,116)"/>
<path d="M0 0 C4.51848038 0.60838843 8.44553201 1.77717107 12.6875 3.4375 C13.80511719 3.86933594 14.92273438 4.30117188 16.07421875 4.74609375 C19 6 19 6 22 8 C21.38117286 12.55840273 19.53092697 16.27940057 17.4375 20.3125 C16.70687121 21.74601219 15.97640701 23.17960829 15.24609375 24.61328125 C14.87210449 25.34240723 14.49811523 26.0715332 14.11279297 26.82275391 C12.38493287 30.20341568 10.69334333 33.60195708 9 37 C8.34264386 38.31520212 7.68509052 39.6303057 7.02734375 40.9453125 C6.69847168 41.60305664 6.36959961 42.26080078 6.03076172 42.93847656 C2.68717448 49.62565104 -0.65641276 56.31282552 -4 63 C-12.57395622 61.68923331 -20.0359637 56.15725579 -27.05078125 51.30859375 C-29.13409211 49.86133543 -29.13409211 49.86133543 -32.0625 48.375 C-32.701875 47.92125 -33.34125 47.4675 -34 47 C-34 42.77894473 -33.92071056 42.40749185 -31.40234375 39.42578125 C-30.56993164 38.42321289 -30.56993164 38.42321289 -29.72070312 37.40039062 C-29.13224609 36.71138672 -28.54378906 36.02238281 -27.9375 35.3125 C-26.79974612 33.95529417 -25.66303332 32.59721494 -24.52734375 31.23828125 C-23.65613892 30.20006226 -23.65613892 30.20006226 -22.76733398 29.14086914 C-19.75760877 25.49502297 -16.8854328 21.74438541 -14 18 C-12.75207209 16.39393265 -11.50336664 14.78846917 -10.25390625 13.18359375 C-9.3402832 12.00893555 -9.3402832 12.00893555 -8.40820312 10.81054688 C-5.60546875 7.20703125 -2.80273438 3.60351562 0 0 Z " fill="#CC4267" transform="translate(201,345)"/>
<path d="M0 0 C2.3639924 2.42706297 4.29232021 5.116015 6.25 7.875 C6.79140625 8.60847656 7.3328125 9.34195312 7.890625 10.09765625 C11.83887769 15.51663306 11.83887769 15.51663306 13 19 C13.66 19 14.32 19 15 19 C16.27448143 20.57365547 17.46898948 22.21237132 18.625 23.875 C21.9968716 28.64106987 25.52521157 33.20705177 29.23828125 37.7109375 C31.03527279 40.04583117 32.5339841 42.44687692 34 45 C31.77144622 46.43845758 29.54218143 47.87579219 27.3125 49.3125 C26.37374023 49.91868164 26.37374023 49.91868164 25.41601562 50.53710938 C20.33781044 53.80736716 15.23825513 56.96176339 9.875 59.75 C9.02679688 60.19859375 8.17859375 60.6471875 7.3046875 61.109375 C5 62 5 62 2 61 C0.71655273 58.89306641 0.71655273 58.89306641 -0.56640625 56.1015625 C-1.04722656 55.07345459 -1.52804687 54.04534668 -2.0234375 52.98608398 C-2.53132813 51.87692627 -3.03921875 50.76776855 -3.5625 49.625 C-4.6338041 47.33587327 -5.70805811 45.04812494 -6.78515625 42.76171875 C-7.59170654 41.04927979 -7.59170654 41.04927979 -8.41455078 39.30224609 C-11.37954446 33.12662175 -14.61056717 27.09654022 -17.84375 21.05859375 C-24 9.52118118 -24 9.52118118 -24 7 C-19.52281663 4.63469558 -15.0338606 2.52358468 -10.3125 0.6875 C-9.42175781 0.34074219 -8.53101563 -0.00601562 -7.61328125 -0.36328125 C-4.39285244 -1.14792982 -3.07468023 -1.31906129 0 0 Z " fill="#F8B7B8" transform="translate(468,346)"/>
<path d="M0 0 C1.32 0.66 2.64 1.32 4 2 C4 2.66 4 3.32 4 4 C4.66 4 5.32 4 6 4 C7.90600624 6.40361863 9.7138867 8.82198042 11.5 11.3125 C16.05290542 17.54858816 20.7844747 23.28909407 26.13671875 28.86328125 C28 31 28 31 29 34 C26.71000939 35.81465313 24.41810968 37.62679598 22.125 39.4375 C21.47402344 39.95376953 20.82304688 40.47003906 20.15234375 41.00195312 C19.52714844 41.49501953 18.90195312 41.98808594 18.2578125 42.49609375 C17.39373779 43.17949829 17.39373779 43.17949829 16.51220703 43.87670898 C15 45 15 45 13 46 C14.05710093 48.27683278 15.08981993 50.10977992 16.6875 52.0625 C17.120625 52.701875 17.55375 53.34125 18 54 C16.78934835 57.63195496 15.46308874 58.42896192 12.4375 60.6875 C11.61121094 61.31011719 10.78492188 61.93273437 9.93359375 62.57421875 C9.29550781 63.04472656 8.65742187 63.51523437 8 64 C4.23020347 60.37910028 0.98900887 56.58230197 -2.1875 52.4375 C-5.79633246 47.78274486 -9.46220593 43.19815554 -13.25 38.6875 C-14.83402122 36.79224138 -16.4173961 34.8964423 -18 33 C-18.71929687 32.14019531 -19.43859375 31.28039062 -20.1796875 30.39453125 C-20.82164062 29.60433594 -21.46359375 28.81414062 -22.125 28 C-22.68445313 27.319375 -23.24390625 26.63875 -23.8203125 25.9375 C-25 24 -25 24 -25 20 C-23.56640625 18.46362305 -23.56640625 18.46362305 -21.5625 17.01171875 C-20.83160156 16.46966797 -20.10070312 15.92761719 -19.34765625 15.36914062 C-18.57292969 14.81419922 -17.79820312 14.25925781 -17 13.6875 C-11.08514493 9.366683 -5.4362705 4.9150477 0 0 Z " fill="#F8B7B8" transform="translate(513,317)"/>
<path d="M0 0 C4.22495289 1.7212771 7.31092804 4.71015107 10.6875 7.6875 C15.99416327 12.30741861 21.37231162 16.77178968 27 21 C26.50418954 25.29702395 23.75852476 27.90543006 21 31 C17.32543402 35.222653 13.81535534 39.48342896 10.5 44 C5.63871734 50.59934561 0.35163416 56.79810621 -5 63 C-9.591665 61.32603695 -12.37196582 59.20616974 -16 56 C-14.92598892 53.08482708 -14.22189824 51.22189824 -12 49 C-12 48.01 -12 47.02 -12 46 C-12.66 45.67 -13.32 45.34 -14 45 C-14 44.34 -14 43.68 -14 43 C-14.66 42.79375 -15.32 42.5875 -16 42.375 C-20.11606263 40.48847129 -23.4587703 37.79432021 -27 35 C-26.41501018 31.9502861 -25.57639619 30.16203455 -23.53125 27.8359375 C-22.79841797 26.98902344 -22.79841797 26.98902344 -22.05078125 26.125 C-21.53902344 25.5475 -21.02726563 24.97 -20.5 24.375 C-16.87840054 20.44774499 -16.87840054 20.44774499 -14 16 C-13.34 16 -12.68 16 -12 16 C-11.7525 15.44570313 -11.505 14.89140625 -11.25 14.3203125 C-9.76692257 11.56735003 -7.97050028 9.30190292 -6 6.875 C-5.29875 6.00617188 -4.5975 5.13734375 -3.875 4.2421875 C-2 2 -2 2 0 0 Z " fill="#CD4267" transform="translate(153,317)"/>
<path d="M0 0 C0.66 0 1.32 0 2 0 C2 0.66 2 1.32 2 2 C2.99 2.33 3.98 2.66 5 3 C6.61012777 4.90556406 8.09384735 6.80293093 9.5625 8.8125 C14.49294577 15.40150269 19.68190549 21.72012244 25 28 C23.49506981 31.73724331 21.38337568 33.58268345 18.25 36.0625 C17.27933594 36.8359375 16.30867188 37.609375 15.30859375 38.40625 C14.20608147 39.27128255 13.1031938 40.13583678 12 41 C10.71980553 42.01010426 9.43986613 43.02053187 8.16015625 44.03125 C4.7803927 46.69645688 1.39218729 49.35062744 -2 52 C-9.61755616 48.72814218 -14.52205846 40.44863997 -19.5 34.0625 C-20.16829834 33.2111145 -20.16829834 33.2111145 -20.85009766 32.3425293 C-24 28.2397413 -24 28.2397413 -24 26 C-24.99 25.67 -25.98 25.34 -27 25 C-27 24.01 -27 23.02 -27 22 C-24.9496299 20.37426276 -22.92839529 18.93481524 -20.75 17.5 C-13.18711901 12.33408707 -6.47334568 6.47334568 0 0 Z " fill="#F99CFE" transform="translate(467,259)"/>
<path d="M0 0 C0.66 0 1.32 0 2 0 C3.22436523 1.31152344 3.22436523 1.31152344 4.62109375 3.109375 C7.99345928 7.17463627 11.80208666 10.16308987 16.0625 13.25 C17.10374023 14.0234375 17.10374023 14.0234375 18.16601562 14.8125 C21.67924227 17.40154451 25.20175235 19.83803448 29 22 C27.48968223 26.80065293 24.76703446 29.92742611 21.5 33.625 C17.54596326 38.15057325 17.54596326 38.15057325 14 43 C13.34 43 12.68 43 12 43 C11.7525 43.556875 11.505 44.11375 11.25 44.6875 C9.78393985 47.39971127 7.97010529 49.63587365 6 52 C0.61282124 50.42741133 -3.12628465 46.81398985 -7.3125 43.25 C-12.75694002 38.65701396 -18.25132171 34.208767 -24 30 C-21.33017357 25.86390734 -18.50120207 22.07629809 -15.3125 18.3125 C-14.43442088 17.27123366 -13.55682835 16.22955683 -12.6796875 15.1875 C-12.2372168 14.66285156 -11.79474609 14.13820313 -11.33886719 13.59765625 C-8.42705251 10.12301816 -5.5767412 6.59778928 -2.71484375 3.08203125 C-1.84444345 2.02525822 -0.9680821 0.9680821 0 0 Z " fill="#F30404" transform="translate(199,259)"/>
<path d="M0 0 C20.13 0 40.26 0 61 0 C61 10.23 61 20.46 61 31 C42.7723862 27.19124488 42.7723862 27.19124488 35.21484375 23.87109375 C32.06449031 22.63206586 28.88106161 22.08435583 25.55859375 21.48828125 C16.82021964 19.8206526 8.40107964 16.8662507 0 14 C0 9.38 0 4.76 0 0 Z " fill="#FCDF98" transform="translate(510,101)"/>
<path d="M0 0 C18.81 0 37.62 0 57 0 C56.67 4.95 56.34 9.9 56 15 C48.12730753 18.74890118 39.66780964 20.85597633 31.22265625 22.92578125 C28.06740633 23.70612824 24.9523678 24.58458469 21.8359375 25.5078125 C20.94132812 25.77207031 20.04671875 26.03632812 19.125 26.30859375 C17.28234856 26.8556309 15.44120427 27.40776913 13.6015625 27.96484375 C8.94609284 29.33053788 4.90955276 30.37514855 0 30 C-1.04141104 19.74610667 -0.65238713 10.43819415 0 0 Z " fill="#4FB8ED" transform="translate(97,101)"/>
<path d="M0 0 C1.58203125 1.53125 1.58203125 1.53125 2.8125 3.5 C3.23144531 4.1496875 3.65039062 4.799375 4.08203125 5.46875 C4.38496094 5.9740625 4.68789062 6.479375 5 7 C3.61368089 10.37526905 2.29341109 11.75520436 -0.88671875 13.5078125 C-1.66080078 13.93707031 -2.43488281 14.36632812 -3.23242188 14.80859375 C-4.04259766 15.24300781 -4.85277344 15.67742187 -5.6875 16.125 C-6.47833984 16.56714844 -7.26917969 17.00929687 -8.08398438 17.46484375 C-12.65897995 19.96579096 -16.92626665 21.79099794 -22 23 C-22.99 22.01 -23.98 21.02 -25 20 C-31.3492613 22.07322818 -36.96209875 25.04817966 -42.71899414 28.39453125 C-47.34764189 30.98652617 -47.34764189 30.98652617 -50.26953125 31.046875 C-52.81669997 29.50592417 -53.61144797 27.64475752 -54.9375 25 C-55.70126953 23.51113281 -55.70126953 23.51113281 -56.48046875 21.9921875 C-56.98191406 21.00476563 -57.48335938 20.01734375 -58 19 C-58.90924353 17.37083488 -59.82522624 15.74540004 -60.75 14.125 C-62.44225087 11.15792013 -63.74984117 8.17775974 -65 5 C-58.8661639 4.44643524 -52.73212517 3.89518824 -46.59790039 3.34594727 C-44.51776717 3.15938607 -42.43768742 2.97222758 -40.35766602 2.78442383 C-5.94801699 -0.32114016 -5.94801699 -0.32114016 0 0 Z " fill="#2E6AD5" transform="translate(163,215)"/>
<path d="M0 0 C21.80979585 0.34939046 43.34081463 2.59769017 65 5 C63.73299698 8.93698835 62.40863433 12.25713441 60.1875 15.75 C57.1329191 20.6883642 54.5150047 25.76968049 52 31 C45.85697271 30.59980278 41.49301694 27.62592727 36.375 24.5 C34.69800924 23.48511383 33.01841185 22.47451936 31.3359375 21.46875 C30.23064697 20.79489258 30.23064697 20.79489258 29.10302734 20.10742188 C27.05881822 19.03097277 25.25666809 18.45120616 23 18 C22.67 18.99 22.34 19.98 22 21 C19.22057857 20.38584371 16.85519542 19.54697389 14.3203125 18.2578125 C13.63839844 17.91363281 12.95648437 17.56945312 12.25390625 17.21484375 C11.55136719 16.85519531 10.84882812 16.49554688 10.125 16.125 C9.43019531 15.77308594 8.73539063 15.42117187 8.01953125 15.05859375 C6.65580015 14.36773939 5.29282062 13.67539904 3.93066406 12.98144531 C1.29374721 11.64097923 -1.35257449 10.31956318 -4 9 C-3.35280053 5.50512285 -1.85752012 3.00290786 0 0 Z " fill="#4F5697" transform="translate(504,215)"/>
<path d="M0 0 C2.15138043 0.56253063 4.29607714 1.15067821 6.4375 1.75 C7.63246094 2.07484375 8.82742187 2.3996875 10.05859375 2.734375 C13 4 13 4 14.08984375 5.87109375 C13.96609834 8.80332198 12.92220461 10.00009674 11.125 12.3125 C8.00924721 16.52465088 5.22373542 20.80780762 2.5625 25.3125 C1.80472758 26.59116959 1.04691489 27.86981531 0.2890625 29.1484375 C-0.27506348 30.10121582 -0.27506348 30.10121582 -0.85058594 31.07324219 C-2.72392864 34.21351844 -4.6414096 37.326277 -6.5625 40.4375 C-7.55443359 42.04431641 -7.55443359 42.04431641 -8.56640625 43.68359375 C-9.03949219 44.44800781 -9.51257813 45.21242188 -10 46 C-14.68803656 45.26951699 -18.90885555 43.63363115 -23.3125 41.9375 C-24.05306641 41.65583984 -24.79363281 41.37417969 -25.55664062 41.08398438 C-27.37242655 40.39281425 -29.18639899 39.69688311 -31 39 C-29.63733356 34.96194134 -27.8590849 32.45631882 -24.9375 29.375 C-20.91599827 25.03280435 -17.14070267 20.55999639 -13.41796875 15.9609375 C-9.02132454 10.57700161 -4.50341455 5.29466869 0 0 Z " fill="#F10504" transform="translate(236,303)"/>
<path d="M0 0 C1.88354758 1.93911809 3.56506047 3.83878827 5.25 5.9375 C5.96700073 6.81015503 5.96700073 6.81015503 6.69848633 7.70043945 C7.6719716 8.88855652 8.64114987 10.08021579 9.60595703 11.27539062 C10.89091227 12.86504453 12.19275306 14.44100995 13.49609375 16.015625 C19 22.72627005 19 22.72627005 19 25 C19.59296875 25.24492187 20.1859375 25.48984375 20.796875 25.7421875 C23.36698726 27.20952109 24.54529966 28.72292225 26.25 31.125 C26.77078125 31.84945312 27.2915625 32.57390625 27.828125 33.3203125 C28.21484375 33.87460937 28.6015625 34.42890625 29 35 C25.85269619 38.67185444 23.11419049 39.91654128 18.5 41.25 C17.3759375 41.58515625 16.251875 41.9203125 15.09375 42.265625 C12 43 12 43 8 43 C6.14524983 40.46403941 4.60489248 38.03237541 3.0625 35.3125 C2.10010291 33.67510797 1.13650787 32.03841961 0.171875 30.40234375 C-0.59092773 29.09499268 -0.59092773 29.09499268 -1.36914062 27.76123047 C-4.23000326 22.91746453 -7.21461924 18.15051973 -10.1875 13.375 C-11.30627477 11.57048928 -12.42478908 9.76581704 -13.54296875 7.9609375 C-14.36190313 6.64057784 -15.18088223 5.3202459 -16 4 C-13.71185277 1.71185277 -12.19248378 1.24548839 -9.125 0.3125 C-8.26132812 0.04050781 -7.39765625 -0.23148437 -6.5078125 -0.51171875 C-3.70526953 -1.05738522 -2.57650131 -1.22308622 0 0 Z " fill="#F89CFC" transform="translate(433,305)"/>
<path d="M0 0 C0.02701408 2.10409639 0.04640223 4.20829178 0.0625 6.3125 C0.07410156 7.48425781 0.08570313 8.65601563 0.09765625 9.86328125 C0 13 0 13 -1 16 C-11.56 16 -22.12 16 -33 16 C-33 13.36 -33 10.72 -33 8 C-32.11646851 7.79636841 -32.11646851 7.79636841 -31.21508789 7.58862305 C-28.49650503 6.95937324 -25.77951709 6.32347516 -23.0625 5.6875 C-22.13630859 5.47416016 -21.21011719 5.26082031 -20.25585938 5.04101562 C-15.01292719 3.80846666 -9.93765665 2.39913841 -4.87280273 0.56176758 C-3 0 -3 0 0 0 Z " fill="#4EB7ED" transform="translate(97,132)"/>
<path d="M0 0 C7.87666794 1.12523828 7.87666794 1.12523828 11.12109375 1.90234375 C11.82943359 2.07056641 12.53777344 2.23878906 13.26757812 2.41210938 C13.98365234 2.58548828 14.69972656 2.75886719 15.4375 2.9375 C16.50581055 3.19176758 16.50581055 3.19176758 17.59570312 3.45117188 C22.40572398 4.6001596 27.20393149 5.79422404 32 7 C32 9.64 32 12.28 32 15 C21.44 15 10.88 15 0 15 C0 10.05 0 5.1 0 0 Z " fill="#52B9EA" transform="translate(572,133)"/>
<path d="M0 0 C1.98 0 3.96 0 6 0 C6 15.51 6 31.02 6 47 C4.02 47 2.04 47 0 47 C-0.97992216 31.25013999 -0.92265041 15.75200666 0 0 Z " fill="#585858" transform="translate(154,101)"/>
<path d="M0 0 C1.65 0 3.3 0 5 0 C5.11275269 1.04788696 5.11275269 1.04788696 5.2277832 2.11694336 C6.71846915 15.83733851 8.33965729 29.45300661 11 43 C7.7 43 4.4 43 1 43 C0.67 28.81 0.34 14.62 0 0 Z " fill="#5B5C5F" transform="translate(153,159)"/>
<path d="M0 0 C2.97 0 5.94 0 9 0 C9 0.99 9 1.98 9 3 C7.02 3 5.04 3 3 3 C3 3.99 3 4.98 3 6 C4.98 6 6.96 6 9 6 C9 6.66 9 7.32 9 8 C9.66 8 10.32 8 11 8 C11.33 7.01 11.66 6.02 12 5 C13.98 5 15.96 5 18 5 C18 5.66 18 6.32 18 7 C17.01 7.33 16.02 7.66 15 8 C15.99 8.33 16.98 8.66 18 9 C17.67 10.65 17.34 12.3 17 14 C11.39 14 5.78 14 0 14 C0 9.38 0 4.76 0 0 Z " fill="#212121" transform="translate(292,46)"/>
<path d="M0 0 C3.96 0 7.92 0 12 0 C13 4 13 4 12.28515625 5.8671875 C11.88167969 6.52976563 11.47820313 7.19234375 11.0625 7.875 C10.60488281 8.6484375 10.14726563 9.421875 9.67578125 10.21875 C9.12277344 11.1365625 8.56976562 12.054375 8 13 C6.93740049 14.82424043 5.8837871 16.65336969 4.83374023 18.48486328 C4.119675 19.73025483 3.40182403 20.97348455 2.67993164 22.21435547 C1.19112345 24.79389865 -0.05494206 27.16482619 -1 30 C-0.05125 30.12375 0.8975 30.2475 1.875 30.375 C5 31 5 31 7 33 C3.7 32.34 0.4 31.68 -3 31 C-3.66 32.98 -4.32 34.96 -5 37 C-6.04449911 33.86650268 -5.93423645 33.01031744 -5 30 C-7.90324634 27.71116161 -10.85951686 25.91544516 -14.125 24.1875 C-19.52159588 21.28946264 -24.77539107 18.19596468 -30 15 C-30.33 16.32 -30.66 17.64 -31 19 C-32.32 18.67 -33.64 18.34 -35 18 C-33.3125 15.9375 -33.3125 15.9375 -31 14 C-27.46710623 14.35680307 -24.83117099 15.44402079 -21.78515625 17.21484375 C-20.63176758 17.87323242 -20.63176758 17.87323242 -19.45507812 18.54492188 C-18.66552734 19.00447266 -17.87597656 19.46402344 -17.0625 19.9375 C-12.13434136 22.79575116 -7.52768235 25.44728024 -2 27 C-1.89115479 26.44731445 -1.78230957 25.89462891 -1.67016602 25.32519531 C-0.87401019 22.56286814 0.3325571 20.31368609 1.72265625 17.796875 C2.26083984 16.8171875 2.79902344 15.8375 3.35351562 14.828125 C4.19946289 13.30445313 4.19946289 13.30445313 5.0625 11.75 C5.63033203 10.71875 6.19816406 9.6875 6.78320312 8.625 C8.18471581 6.08107782 9.59182369 3.54023962 11 1 C7.37 1 3.74 1 0 1 C0 0.67 0 0.34 0 0 Z " fill="#DCD0DC" transform="translate(558,219)"/>
<path d="M0 0 C-0.94875 0.53625 -1.8975 1.0725 -2.875 1.625 C-6.88936255 3.91072888 -10.82806676 6.31535151 -14.765625 8.73046875 C-17 10 -17 10 -20 11 C-19.01 14.3 -18.02 17.6 -17 21 C-19.50816459 18.49183541 -20.61410019 17.09162264 -22 14 C-27.24700706 14.88305794 -32.18551493 16.63890484 -37.20507812 18.359375 C-40.91987485 19.57322407 -43.27376137 20.18049874 -47 19 C-43.33861961 17.65179077 -39.67107127 16.32158566 -36 15 C-34.73349609 14.53787109 -34.73349609 14.53787109 -33.44140625 14.06640625 C-29.51694853 12.68324999 -26.22846107 11.59079409 -22 12 C-22 11.34 -22 10.68 -22 10 C-19.07177284 7.83785673 -15.84206266 6.12324174 -12.6875 4.3125 C-11.80642578 3.78849609 -10.92535156 3.26449219 -10.01757812 2.72460938 C-8.74624023 1.98887695 -8.74624023 1.98887695 -7.44921875 1.23828125 C-6.66893311 0.78493408 -5.88864746 0.33158691 -5.0847168 -0.13549805 C-3 -1 -3 -1 0 0 Z " fill="#D4BFCD" transform="translate(134,237)"/>
<path d="M0 0 C2.97 0 5.94 0 9 0 C9 0.99 9 1.98 9 3 C7.02 3 5.04 3 3 3 C3 3.99 3 4.98 3 6 C4.65 6 6.3 6 8 6 C8 6.99 8 7.98 8 9 C6.35 9 4.7 9 3 9 C3 9.99 3 10.98 3 12 C4.98 12 6.96 12 9 12 C9 12.66 9 13.32 9 14 C6.03 14 3.06 14 0 14 C0 9.38 0 4.76 0 0 Z " fill="#D4D4D4" transform="translate(292,46)"/>
<path d="M0 0 C2.05078125 0.03255208 4.1015625 0.06510417 6.15234375 0.09765625 C6.15234375 3.06765625 6.15234375 6.03765625 6.15234375 9.09765625 C2.77734375 9.22265625 2.77734375 9.22265625 -0.84765625 9.09765625 C-2.84765625 7.09765625 -2.84765625 7.09765625 -3.03515625 4.03515625 C-2.78699548 0.1473042 -2.78699548 0.1473042 0 0 Z " fill="#DBDBDB" transform="translate(346.84765625,50.90234375)"/>
<path d="M0 0 C1.32 0 2.64 0 4 0 C4 4.29 4 8.58 4 13 C3.01 13 2.02 13 1 13 C0.67 10.69 0.34 8.38 0 6 C-0.99 6.33 -1.98 6.66 -3 7 C-3.33 8.98 -3.66 10.96 -4 13 C-4.66 13 -5.32 13 -6 13 C-6 9.7 -6 6.4 -6 3 C-4.02 3 -2.04 3 0 3 C0 2.01 0 1.02 0 0 Z " fill="#A9A9A9" transform="translate(362,47)"/>
<path d="M0 0 C3.0625 0.1875 3.0625 0.1875 5.0625 2.1875 C5.375 4.6875 5.375 4.6875 5.0625 7.1875 C2.0625 9.1875 2.0625 9.1875 -0.5625 8.875 C-2.9375 8.1875 -2.9375 8.1875 -3.9375 7.1875 C-4.0625 4.1875 -4.0625 4.1875 -3.9375 1.1875 C-2.9375 0.1875 -2.9375 0.1875 0 0 Z " fill="#E8E8E8" transform="translate(371.9375,50.8125)"/>
<path d="M0 0 C3.96 0 7.92 0 12 0 C13 4 13 4 12.25 5.9375 C11.8375 6.618125 11.425 7.29875 11 8 C10.53851562 8.7734375 10.07703125 9.546875 9.6015625 10.34375 C9.07304688 11.2203125 8.54453125 12.096875 8 13 C7.40960937 14.0621875 6.81921875 15.124375 6.2109375 16.21875 C5.60507812 17.3015625 4.99921875 18.384375 4.375 19.5 C3.80523438 20.5209375 3.23546875 21.541875 2.6484375 22.59375 C1 25 1 25 -2 26 C-0.68706289 22.55688942 0.8143342 19.35788604 2.6015625 16.13671875 C3.33632813 14.80737305 3.33632813 14.80737305 4.0859375 13.45117188 C4.59382812 12.53916016 5.10171875 11.62714844 5.625 10.6875 C6.140625 9.75615234 6.65625 8.82480469 7.1875 7.86523438 C8.4557281 5.57537808 9.72751521 3.28749357 11 1 C7.37 1 3.74 1 0 1 C0 0.67 0 0.34 0 0 Z " fill="#CED1DA" transform="translate(558,219)"/>
<path d="M0 0 C3.49251704 4.07460321 6.05287301 8.38551577 8.625 13.0625 C9.01945312 13.76955078 9.41390625 14.47660156 9.8203125 15.20507812 C12.75514648 20.4848048 12.75514648 20.4848048 14.00146484 23.10717773 C14.96774557 25.16473602 14.96774557 25.16473602 17 27 C16.34 27 15.68 27 15 27 C14.67 27.66 14.34 28.32 14 29 C13.443125 27.865625 12.88625 26.73125 12.3125 25.5625 C10.43123079 21.79996157 8.42952561 18.1211095 6.37109375 14.453125 C3.87630973 9.98952282 1.4432797 5.49194034 -1 1 C-0.67 0.67 -0.34 0.34 0 0 Z " fill="#C8D7E7" transform="translate(97,220)"/>
<path d="M0 0 C-3.0132657 1.80462587 -6.03683138 3.59126021 -9.0625 5.375 C-9.91005859 5.88289062 -10.75761719 6.39078125 -11.63085938 6.9140625 C-16.37285948 9.69701237 -20.62748928 11.78990939 -26 13 C-26.61875 12.2265625 -26.61875 12.2265625 -27.25 11.4375 C-27.8275 10.963125 -28.405 10.48875 -29 10 C-31.16299211 10.22757731 -31.16299211 10.22757731 -33 11 C-31.35 9.68 -29.7 8.36 -28 7 C-27.01 7.99 -26.02 8.98 -25 10 C-18.95916564 8.28353058 -13.99082363 5.22871506 -8.65820312 2.01367188 C-7.97306641 1.61341797 -7.28792969 1.21316406 -6.58203125 0.80078125 C-5.96561768 0.43122314 -5.3492041 0.06166504 -4.71411133 -0.3190918 C-3 -1 -3 -1 0 0 Z " fill="#C6B6CB" transform="translate(167,225)"/>
<path d="M0 0 C0.763125 0.20625 1.52625 0.4125 2.3125 0.625 C2.3125 1.945 2.3125 3.265 2.3125 4.625 C0.6625 4.625 -0.9875 4.625 -2.6875 4.625 C-2.6875 5.285 -2.6875 5.945 -2.6875 6.625 C-1.0375 6.295 0.6125 5.965 2.3125 5.625 C1.9825 6.615 1.6525 7.605 1.3125 8.625 C-1.0625 8.75 -1.0625 8.75 -3.6875 8.625 C-5.6875 6.625 -5.6875 6.625 -6 4.125 C-5.896875 3.3 -5.79375 2.475 -5.6875 1.625 C-2.6875 -0.375 -2.6875 -0.375 0 0 Z " fill="#D6D6D6" transform="translate(327.6875,51.375)"/>
<path d="M0 0 C-9.91398182 3.6402902 -19.89984526 6.91748524 -30 10 C-29.67 9.01 -29.34 8.02 -29 7 C-26.6550293 5.90917969 -26.6550293 5.90917969 -23.57421875 4.921875 C-21.91422852 4.38820313 -21.91422852 4.38820313 -20.22070312 3.84375 C-19.05474609 3.4828125 -17.88878906 3.121875 -16.6875 2.75 C-15.53314453 2.37359375 -14.37878906 1.9971875 -13.18945312 1.609375 C-3.75473501 -1.36943327 -3.75473501 -1.36943327 0 0 Z " fill="#D4CDDA" transform="translate(87,258)"/>
<path d="M0 0 C6.15234375 -0.09765625 6.15234375 -0.09765625 8 0 C9 1 9 1 9.09765625 2.84765625 C9.04882812 5.92382812 9.04882812 5.92382812 9 9 C8.01 9 7.02 9 6 9 C6 6.69 6 4.38 6 2 C5.01 2.33 4.02 2.66 3 3 C2.67 4.98 2.34 6.96 2 9 C1.34 9 0.68 9 0 9 C0 6.03 0 3.06 0 0 Z " fill="#E3E3E3" transform="translate(333,51)"/>
<path d="M0 0 C1.98 0 3.96 0 6 0 C6 0.66 6 1.32 6 2 C5.01 2.33 4.02 2.66 3 3 C3.99 3.33 4.98 3.66 6 4 C5.67 5.65 5.34 7.3 5 9 C3.35 8.67 1.7 8.34 0 8 C0.99 7.34 1.98 6.68 3 6 C1.68 5.34 0.36 4.68 -1 4 C-0.67 2.68 -0.34 1.36 0 0 Z " fill="#DDDDDD" transform="translate(304,51)"/>
<path d="M0 0 C1.134375 0.020625 2.26875 0.04125 3.4375 0.0625 C3.4375 0.7225 3.4375 1.3825 3.4375 2.0625 C1.7875 2.3925 0.1375 2.7225 -1.5625 3.0625 C-1.5625 4.0525 -1.5625 5.0425 -1.5625 6.0625 C0.0875 6.3925 1.7375 6.7225 3.4375 7.0625 C3.1075 7.7225 2.7775 8.3825 2.4375 9.0625 C0.0625 9.1875 0.0625 9.1875 -2.5625 9.0625 C-4.5625 7.0625 -4.5625 7.0625 -4.75 4 C-4.4768176 -0.27985756 -4.4104386 0.07737612 0 0 Z " fill="#E8E8E8" transform="translate(316.5625,50.9375)"/>
<path d="M0 0 C0.671875 1.6953125 0.671875 1.6953125 1 4 C-0.109375 6.3671875 -0.109375 6.3671875 -1.75 8.875 C-4.06749888 12.51832382 -6.15299557 16.10076843 -8 20 C-8.66 19.34 -9.32 18.68 -10 18 C-8.71024828 15.56146943 -7.41828475 13.12415588 -6.125 10.6875 C-5.57779297 9.65206055 -5.57779297 9.65206055 -5.01953125 8.59570312 C-4.66503906 7.92861328 -4.31054688 7.26152344 -3.9453125 6.57421875 C-3.62062988 5.96151123 -3.29594727 5.34880371 -2.96142578 4.7175293 C-2.05452942 3.09741352 -1.0298971 1.54484566 0 0 Z " fill="#ECD4E1" transform="translate(535,286)"/>
<path d="M0 0 C1.4540625 0.0309375 1.4540625 0.0309375 2.9375 0.0625 C3.2675 1.7125 3.5975 3.3625 3.9375 5.0625 C1.6275 5.0625 -0.6825 5.0625 -3.0625 5.0625 C-3.625 3.125 -3.625 3.125 -4.0625 1.0625 C-3.0625 0.0625 -3.0625 0.0625 0 0 Z " fill="#171717" transform="translate(318.0625,52.9375)"/>
<path d="M0 0 C0.33 0.66 0.66 1.32 1 2 C0.67 2.99 0.34 3.98 0 5 C0.94875 5.12375 1.8975 5.2475 2.875 5.375 C6 6 6 6 8 8 C4.7 7.34 1.4 6.68 -2 6 C-2.66 7.98 -3.32 9.96 -4 12 C-5.25541557 8.23375329 -4.37061958 6.62811066 -3 3 C-2.34 3 -1.68 3 -1 3 C-0.67 2.01 -0.34 1.02 0 0 Z " fill="#E4DCE6" transform="translate(557,244)"/>
<path d="M0 0 C3.96 0 7.92 0 12 0 C13.19156292 4.76625167 12.3415946 5.87879351 10 10 C9.34 9.67 8.68 9.34 8 9 C9.875 3.25 9.875 3.25 11 1 C7.37 1 3.74 1 0 1 C0 0.67 0 0.34 0 0 Z " fill="#C0C2CD" transform="translate(558,219)"/>
<path d="M0 0 C1.65 0 3.3 0 5 0 C5 0.66 5 1.32 5 2 C4.01 2.495 4.01 2.495 3 3 C2.34227572 6.02934491 2.34227572 6.02934491 2 9 C1.34 9 0.68 9 0 9 C0 6.03 0 3.06 0 0 Z " fill="#F1F1F1" transform="translate(356,51)"/>
<path d="M0 0 C0 2.97 0 5.94 0 9 C-1.32 8.34 -2.64 7.68 -4 7 C-3.814375 6.38125 -3.62875 5.7625 -3.4375 5.125 C-2.76313824 2.95839822 -2.76313824 2.95839822 -4 1 C-2 0 -2 0 0 0 Z " fill="#F6F6F6" transform="translate(353,51)"/>
<path d="M0 0 C1.98 0.495 1.98 0.495 4 1 C3.67 2.32 3.34 3.64 3 5 C1.68 4.67 0.36 4.34 -1 4 C-0.67 2.68 -0.34 1.36 0 0 Z " fill="#252525" transform="translate(371,53)"/>
<path d="M0 0 C1.98 0.495 1.98 0.495 4 1 C3.67 2.32 3.34 3.64 3 5 C1.68 4.67 0.36 4.34 -1 4 C-0.67 2.68 -0.34 1.36 0 0 Z " fill="#202020" transform="translate(347,53)"/>
<path d="M0 0 C4.75207471 -0.43200679 7.78210698 1.01510917 12 3 C12 3.33 12 3.66 12 4 C3.42857143 3.28571429 3.42857143 3.28571429 0 0 Z " fill="#E2DFE4" transform="translate(593,261)"/>
<path d="M0 0 C0.433125 0.45375 0.86625 0.9075 1.3125 1.375 C3.10798342 3.20024334 3.10798342 3.20024334 6 5 C4.1875 5.6875 4.1875 5.6875 2 6 C1 5 0 4 -1 3 C-3.16299211 3.22757731 -3.16299211 3.22757731 -5 4 C-3.35 2.68 -1.7 1.36 0 0 Z " fill="#D0BFD0" transform="translate(139,232)"/>
<path d="M0 0 C2.31 0 4.62 0 7 0 C7 0.66 7 1.32 7 2 C4.36 2.33 1.72 2.66 -1 3 C-0.67 2.01 -0.34 1.02 0 0 Z " fill="#D8D8D8" transform="translate(313,51)"/>
</svg>
